<?xml version="1.0" encoding="UTF-8" standalone="no"?>
<!DOCTYPE svg PUBLIC "-//W3C//DTD SVG 1.1//EN"
 "http://www.w3.org/Graphics/SVG/1.1/DTD/svg11.dtd">
<!-- Generated by graphviz version 2.43.0 (0)
 -->
<!-- Title: classes_bfod Pages: 1 -->
<svg width="607pt" height="499pt"
 viewBox="0.00 0.00 607.00 499.00" xmlns="http://www.w3.org/2000/svg" xmlns:xlink="http://www.w3.org/1999/xlink">
<g id="graph0" class="graph" transform="scale(1 1) rotate(0) translate(4 495)">
<title>classes_bfod</title>
<polygon fill="white" stroke="transparent" points="-4,4 -4,-495 603,-495 603,4 -4,4"/>
<!-- FODLego.BFOD.BFOD -->
<g id="node1" class="node">
<title>FODLego.BFOD.BFOD</title>
<polygon fill="none" stroke="black" points="112.5,-226.5 112.5,-490.5 486.5,-490.5 486.5,-226.5 112.5,-226.5"/>
<text text-anchor="start" x="278" y="-475.3" font-family="Times,serif" font-size="14.00">BFOD</text>
<polyline fill="none" stroke="black" points="112.5,-467.5 486.5,-467.5 "/>
<text text-anchor="start" x="228" y="-452.3" font-family="Times,serif" font-size="14.00">mBold : Atom</text>
<text text-anchor="start" x="228" y="-437.3" font-family="Times,serif" font-size="14.00">mBoldAngle : float</text>
<text text-anchor="start" x="228" y="-422.3" font-family="Times,serif" font-size="14.00">mBoldPortion : float</text>
<text text-anchor="start" x="228" y="-407.3" font-family="Times,serif" font-size="14.00">mBoldR : float</text>
<text text-anchor="start" x="228" y="-392.3" font-family="Times,serif" font-size="14.00">mBondDir</text>
<text text-anchor="start" x="228" y="-377.3" font-family="Times,serif" font-size="14.00">mBondDist</text>
<text text-anchor="start" x="228" y="-362.3" font-family="Times,serif" font-size="14.00">mHeight</text>
<text text-anchor="start" x="228" y="-347.3" font-family="Times,serif" font-size="14.00">mMeek : Atom</text>
<text text-anchor="start" x="228" y="-332.3" font-family="Times,serif" font-size="14.00">mMeekAngle : float</text>
<text text-anchor="start" x="228" y="-317.3" font-family="Times,serif" font-size="14.00">mMeekR : float</text>
<text text-anchor="start" x="228" y="-302.3" font-family="Times,serif" font-size="14.00">mPos : NoneType</text>
<polyline fill="none" stroke="black" points="112.5,-294.5 486.5,-294.5 "/>
<text text-anchor="start" x="120.5" y="-279.3" font-family="Times,serif" font-size="14.00">Calc_AxisBoldPortion(Zbold: int, Zmeek: int): float</text>
<text text-anchor="start" x="120.5" y="-264.3" font-family="Times,serif" font-size="14.00">IsMonoatomic(): bool</text>
<text text-anchor="start" x="120.5" y="-249.3" font-family="Times,serif" font-size="14.00">PrintParams()</text>
<text text-anchor="start" x="120.5" y="-234.3" font-family="Times,serif" font-size="14.00">RevDet()</text>
</g>
<!-- FODLego.BFOD.DBFOD -->
<g id="node2" class="node">
<title>FODLego.BFOD.DBFOD</title>
<polygon fill="none" stroke="black" points="0,-0.5 0,-189.5 185,-189.5 185,-0.5 0,-0.5"/>
<text text-anchor="start" x="65" y="-174.3" font-family="Times,serif" font-size="14.00">DBFOD</text>
<polyline fill="none" stroke="black" points="0,-166.5 185,-166.5 "/>
<text text-anchor="start" x="21" y="-151.3" font-family="Times,serif" font-size="14.00">mBoldAngle</text>
<text text-anchor="start" x="21" y="-136.3" font-family="Times,serif" font-size="14.00">mBoldPortion : float</text>
<text text-anchor="start" x="21" y="-121.3" font-family="Times,serif" font-size="14.00">mBoldR</text>
<text text-anchor="start" x="21" y="-106.3" font-family="Times,serif" font-size="14.00">mHeight : ndarray</text>
<text text-anchor="start" x="21" y="-91.3" font-family="Times,serif" font-size="14.00">mMeekAngle</text>
<text text-anchor="start" x="21" y="-76.3" font-family="Times,serif" font-size="14.00">mMeekR</text>
<text text-anchor="start" x="21" y="-61.3" font-family="Times,serif" font-size="14.00">mPos</text>
<polyline fill="none" stroke="black" points="0,-53.5 185,-53.5 "/>
<text text-anchor="start" x="8" y="-38.3" font-family="Times,serif" font-size="14.00">DetermineParameters()</text>
<text text-anchor="start" x="8" y="-23.3" font-family="Times,serif" font-size="14.00">GetBondAxProj(): float</text>
<text text-anchor="start" x="8" y="-8.3" font-family="Times,serif" font-size="14.00">GetHeight(r): float</text>
</g>
<!-- FODLego.BFOD.DBFOD&#45;&gt;FODLego.BFOD.BFOD -->
<g id="edge1" class="edge">
<title>FODLego.BFOD.DBFOD&#45;&gt;FODLego.BFOD.BFOD</title>
<path fill="none" stroke="black" d="M166.65,-189.67C173.99,-198.94 181.54,-208.49 189.15,-218.1"/>
<polygon fill="none" stroke="black" points="186.6,-220.51 195.55,-226.18 192.08,-216.16 186.6,-220.51"/>
</g>
<!-- FODLego.BFOD.SBFOD -->
<g id="node3" class="node">
<title>FODLego.BFOD.SBFOD</title>
<polygon fill="none" stroke="black" points="202.5,-38 202.5,-152 396.5,-152 396.5,-38 202.5,-38"/>
<text text-anchor="start" x="273" y="-136.8" font-family="Times,serif" font-size="14.00">SBFOD</text>
<polyline fill="none" stroke="black" points="202.5,-129 396.5,-129 "/>
<text text-anchor="start" x="228" y="-113.8" font-family="Times,serif" font-size="14.00">mBoldPortion : float</text>
<text text-anchor="start" x="228" y="-98.8" font-family="Times,serif" font-size="14.00">mBoldR</text>
<text text-anchor="start" x="228" y="-83.8" font-family="Times,serif" font-size="14.00">mMeekR</text>
<text text-anchor="start" x="228" y="-68.8" font-family="Times,serif" font-size="14.00">mPos</text>
<polyline fill="none" stroke="black" points="202.5,-61 396.5,-61 "/>
<text text-anchor="start" x="210.5" y="-45.8" font-family="Times,serif" font-size="14.00">DetermineParamenters()</text>
</g>
<!-- FODLego.BFOD.SBFOD&#45;&gt;FODLego.BFOD.BFOD -->
<g id="edge2" class="edge">
<title>FODLego.BFOD.SBFOD&#45;&gt;FODLego.BFOD.BFOD</title>
<path fill="none" stroke="black" d="M299.5,-152.1C299.5,-171.18 299.5,-193.46 299.5,-216.17"/>
<polygon fill="none" stroke="black" points="296,-216.27 299.5,-226.27 303,-216.27 296,-216.27"/>
</g>
<!-- FODLego.BFOD.TBFOD -->
<g id="node4" class="node">
<title>FODLego.BFOD.TBFOD</title>
<polygon fill="none" stroke="black" points="414,-2 414,-188 599,-188 599,-2 414,-2"/>
<text text-anchor="start" x="480.5" y="-172.8" font-family="Times,serif" font-size="14.00">TBFOD</text>
<polyline fill="none" stroke="black" points="414,-165 599,-165 "/>
<text text-anchor="start" x="440" y="-149.8" font-family="Times,serif" font-size="14.00">mBoldAngle</text>
<text text-anchor="start" x="440" y="-134.8" font-family="Times,serif" font-size="14.00">mBoldPortion</text>
<text text-anchor="start" x="440" y="-119.8" font-family="Times,serif" font-size="14.00">mBoldR</text>
<text text-anchor="start" x="440" y="-104.8" font-family="Times,serif" font-size="14.00">mHeight : ndarray</text>
<text text-anchor="start" x="440" y="-89.8" font-family="Times,serif" font-size="14.00">mMeekAngle</text>
<text text-anchor="start" x="440" y="-74.8" font-family="Times,serif" font-size="14.00">mMeekR</text>
<text text-anchor="start" x="440" y="-59.8" font-family="Times,serif" font-size="14.00">mPos</text>
<polyline fill="none" stroke="black" points="414,-52 599,-52 "/>
<text text-anchor="start" x="422" y="-37.8" font-family="Times,serif" font-style="italic" font-size="14.00">DetermineHeight</text>
<text text-anchor="start" x="547" y="-37.8" font-family="Times,serif" font-size="14.00">()</text>
<text text-anchor="start" x="422" y="-23.8" font-family="Times,serif" font-size="14.00">DetermineMeek()</text>
<text text-anchor="start" x="422" y="-9.8" font-family="Times,serif" font-size="14.00">DetermineParameters()</text>
</g>
<!-- FODLego.BFOD.TBFOD&#45;&gt;FODLego.BFOD.BFOD -->
<g id="edge3" class="edge">
<title>FODLego.BFOD.TBFOD&#45;&gt;FODLego.BFOD.BFOD</title>
<path fill="none" stroke="black" d="M433.52,-188.2C425.8,-197.94 417.84,-208 409.82,-218.13"/>
<polygon fill="none" stroke="black" points="406.85,-216.25 403.38,-226.27 412.33,-220.6 406.85,-216.25"/>
</g>
</g>
</svg>
