<?xml version="1.0" encoding="utf-8" standalone="no"?>
<!DOCTYPE svg PUBLIC "-//W3C//DTD SVG 1.1//EN"
  "http://www.w3.org/Graphics/SVG/1.1/DTD/svg11.dtd">
<svg xmlns:xlink="http://www.w3.org/1999/xlink" width="432pt" height="216pt" viewBox="0 0 432 216" xmlns="http://www.w3.org/2000/svg" version="1.1">
 <metadata>
  <rdf:RDF xmlns:dc="http://purl.org/dc/elements/1.1/" xmlns:cc="http://creativecommons.org/ns#" xmlns:rdf="http://www.w3.org/1999/02/22-rdf-syntax-ns#">
   <cc:Work>
    <dc:type rdf:resource="http://purl.org/dc/dcmitype/StillImage"/>
    <dc:date>2024-07-15T17:13:47.320069</dc:date>
    <dc:format>image/svg+xml</dc:format>
    <dc:creator>
     <cc:Agent>
      <dc:title>Matplotlib v3.8.2, https://matplotlib.org/</dc:title>
     </cc:Agent>
    </dc:creator>
   </cc:Work>
  </rdf:RDF>
 </metadata>
 <defs>
  <style type="text/css">*{stroke-linejoin: round; stroke-linecap: butt}</style>
 </defs>
 <g id="figure_1">
  <g id="patch_1">
   <path d="M 0 216 
L 432 216 
L 432 0 
L 0 0 
z
" style="fill: #ffffff"/>
  </g>
  <g id="axes_1">
   <g id="patch_2">
    <path d="M 54.34625 174.04 
L 421.2 174.04 
L 421.2 10.8 
L 54.34625 10.8 
z
" style="fill: #ffffff"/>
   </g>
   <g id="PathCollection_1">
    <defs>
     <path id="m0c8cb2f758" d="M 0 1.017751 
C 0.269911 1.017751 0.528803 0.910514 0.719659 0.719659 
C 0.910514 0.528803 1.017751 0.269911 1.017751 0 
C 1.017751 -0.269911 0.910514 -0.528803 0.719659 -0.719659 
C 0.528803 -0.910514 0.269911 -1.017751 0 -1.017751 
C -0.269911 -1.017751 -0.528803 -0.910514 -0.719659 -0.719659 
C -0.910514 -0.528803 -1.017751 -0.269911 -1.017751 0 
C -1.017751 0.269911 -0.910514 0.528803 -0.719659 0.719659 
C -0.528803 0.910514 -0.269911 1.017751 0 1.017751 
z
"/>
    </defs>
    <g clip-path="url(#p56751616c3)">
     <use xlink:href="#m0c8cb2f758" x="159.955663" y="147.426143" style="fill: #008000; fill-opacity: 0.7"/>
    </g>
   </g>
   <g id="PathCollection_2">
    <defs>
     <path id="m59730b3865" d="M 0 3.00885 
C 0.797956 3.00885 1.563338 2.691819 2.127578 2.127578 
C 2.691819 1.563338 3.00885 0.797956 3.00885 0 
C 3.00885 -0.797956 2.691819 -1.563338 2.127578 -2.127578 
C 1.563338 -2.691819 0.797956 -3.00885 0 -3.00885 
C -0.797956 -3.00885 -1.563338 -2.691819 -2.127578 -2.127578 
C -2.691819 -1.563338 -3.00885 -0.797956 -3.00885 0 
C -3.00885 0.797956 -2.691819 1.563338 -2.127578 2.127578 
C -1.563338 2.691819 -0.797956 3.00885 0 3.00885 
z
"/>
    </defs>
    <g clip-path="url(#p56751616c3)">
     <use xlink:href="#m59730b3865" x="101.195538" y="101.080227" style="fill: #008000; fill-opacity: 0.7"/>
    </g>
   </g>
   <g id="PathCollection_3">
    <defs>
     <path id="ma0ad0c7419" d="M 0 1.648374 
C 0.437154 1.648374 0.856462 1.474691 1.165576 1.165576 
C 1.474691 0.856462 1.648374 0.437154 1.648374 0 
C 1.648374 -0.437154 1.474691 -0.856462 1.165576 -1.165576 
C 0.856462 -1.474691 0.437154 -1.648374 0 -1.648374 
C -0.437154 -1.648374 -0.856462 -1.474691 -1.165576 -1.165576 
C -1.474691 -0.856462 -1.648374 -0.437154 -1.648374 0 
C -1.648374 0.437154 -1.474691 0.856462 -1.165576 1.165576 
C -0.856462 1.474691 -0.437154 1.648374 0 1.648374 
z
"/>
    </defs>
    <g clip-path="url(#p56751616c3)">
     <use xlink:href="#ma0ad0c7419" x="129.781545" y="127.64469" style="fill: #008000; fill-opacity: 0.7"/>
    </g>
   </g>
   <g id="PathCollection_4">
    <defs>
     <path id="m5814d1ffe1" d="M 0 1.331079 
C 0.353006 1.331079 0.691602 1.190828 0.941215 0.941215 
C 1.190828 0.691602 1.331079 0.353006 1.331079 0 
C 1.331079 -0.353006 1.190828 -0.691602 0.941215 -0.941215 
C 0.691602 -1.190828 0.353006 -1.331079 0 -1.331079 
C -0.353006 -1.331079 -0.691602 -1.190828 -0.941215 -0.941215 
C -1.190828 -0.691602 -1.331079 -0.353006 -1.331079 0 
C -1.331079 0.353006 -1.190828 0.691602 -0.941215 0.941215 
C -0.691602 1.190828 -0.353006 1.331079 0 1.331079 
z
"/>
    </defs>
    <g clip-path="url(#p56751616c3)">
     <use xlink:href="#m5814d1ffe1" x="166.308109" y="122.991463" style="fill: #008000; fill-opacity: 0.7"/>
    </g>
   </g>
   <g id="PathCollection_5">
    <defs>
     <path id="md45ce60fe7" d="M 0 6.386784 
C 1.693795 6.386784 3.318445 5.713833 4.516139 4.516139 
C 5.713833 3.318445 6.386784 1.693795 6.386784 0 
C 6.386784 -1.693795 5.713833 -3.318445 4.516139 -4.516139 
C 3.318445 -5.713833 1.693795 -6.386784 0 -6.386784 
C -1.693795 -6.386784 -3.318445 -5.713833 -4.516139 -4.516139 
C -5.713833 -3.318445 -6.386784 -1.693795 -6.386784 0 
C -6.386784 1.693795 -5.713833 3.318445 -4.516139 4.516139 
C -3.318445 5.713833 -1.693795 6.386784 0 6.386784 
z
"/>
    </defs>
    <g clip-path="url(#p56751616c3)">
     <use xlink:href="#md45ce60fe7" x="245.713682" y="94.022713" style="fill: #008000; fill-opacity: 0.7"/>
    </g>
   </g>
   <g id="PathCollection_6">
    <defs>
     <path id="m0c664a816e" d="M 0 1.903021 
C 0.504687 1.903021 0.988772 1.702507 1.345639 1.345639 
C 1.702507 0.988772 1.903021 0.504687 1.903021 0 
C 1.903021 -0.504687 1.702507 -0.988772 1.345639 -1.345639 
C 0.988772 -1.702507 0.504687 -1.903021 0 -1.903021 
C -0.504687 -1.903021 -0.988772 -1.702507 -1.345639 -1.345639 
C -1.702507 -0.988772 -1.903021 -0.504687 -1.903021 0 
C -1.903021 0.504687 -1.702507 0.988772 -1.345639 1.345639 
C -0.988772 1.702507 -0.504687 1.903021 0 1.903021 
z
"/>
    </defs>
    <g clip-path="url(#p56751616c3)">
     <use xlink:href="#m0c664a816e" x="125.01721" y="120.80095" style="fill: #008000; fill-opacity: 0.7"/>
    </g>
   </g>
   <g id="PathCollection_7">
    <defs>
     <path id="m2e8fbdad60" d="M 0 3.977638 
C 1.054882 3.977638 2.066701 3.558529 2.812615 2.812615 
C 3.558529 2.066701 3.977638 1.054882 3.977638 0 
C 3.977638 -1.054882 3.558529 -2.066701 2.812615 -2.812615 
C 2.066701 -3.558529 1.054882 -3.977638 0 -3.977638 
C -1.054882 -3.977638 -2.066701 -3.558529 -2.812615 -2.812615 
C -3.558529 -2.066701 -3.977638 -1.054882 -3.977638 0 
C -3.977638 1.054882 -3.558529 2.066701 -2.812615 2.812615 
C -2.066701 3.558529 -1.054882 3.977638 0 3.977638 
z
"/>
    </defs>
    <g clip-path="url(#p56751616c3)">
     <use xlink:href="#m2e8fbdad60" x="74.197643" y="133.946844" style="fill: #008000; fill-opacity: 0.7"/>
    </g>
   </g>
   <g id="PathCollection_8">
    <defs>
     <path id="m50f5969f34" d="M 0 1.564555 
C 0.414925 1.564555 0.812911 1.399703 1.106307 1.106307 
C 1.399703 0.812911 1.564555 0.414925 1.564555 0 
C 1.564555 -0.414925 1.399703 -0.812911 1.106307 -1.106307 
C 0.812911 -1.399703 0.414925 -1.564555 0 -1.564555 
C -0.414925 -1.564555 -0.812911 -1.399703 -1.106307 -1.106307 
C -1.399703 -0.812911 -1.564555 -0.414925 -1.564555 0 
C -1.564555 0.414925 -1.399703 0.812911 -1.106307 1.106307 
C -0.812911 1.399703 -0.414925 1.564555 0 1.564555 
z
"/>
    </defs>
    <g clip-path="url(#p56751616c3)">
     <use xlink:href="#m50f5969f34" x="280.652135" y="114.052253" style="fill: #008000; fill-opacity: 0.7"/>
    </g>
   </g>
   <g id="PathCollection_9">
    <defs>
     <path id="mb44247d742" d="M 0 1.288071 
C 0.3416 1.288071 0.669256 1.152352 0.910804 0.910804 
C 1.152352 0.669256 1.288071 0.3416 1.288071 0 
C 1.288071 -0.3416 1.152352 -0.669256 0.910804 -0.910804 
C 0.669256 -1.152352 0.3416 -1.288071 0 -1.288071 
C -0.3416 -1.288071 -0.669256 -1.152352 -0.910804 -0.910804 
C -1.152352 -0.669256 -1.288071 -0.3416 -1.288071 0 
C -1.288071 0.3416 -1.152352 0.669256 -0.910804 0.910804 
C -0.669256 1.152352 -0.3416 1.288071 0 1.288071 
z
"/>
    </defs>
    <g clip-path="url(#p56751616c3)">
     <use xlink:href="#mb44247d742" x="196.482227" y="139.811747" style="fill: #008000; fill-opacity: 0.7"/>
    </g>
   </g>
   <g id="PathCollection_10">
    <defs>
     <path id="me8d0f98260" d="M 0 1.472377 
C 0.390479 1.472377 0.765018 1.317238 1.041128 1.041128 
C 1.317238 0.765018 1.472377 0.390479 1.472377 0 
C 1.472377 -0.390479 1.317238 -0.765018 1.041128 -1.041128 
C 0.765018 -1.317238 0.390479 -1.472377 0 -1.472377 
C -0.390479 -1.472377 -0.765018 -1.317238 -1.041128 -1.041128 
C -1.317238 -0.765018 -1.472377 -0.390479 -1.472377 0 
C -1.472377 0.390479 -1.317238 0.765018 -1.041128 1.041128 
C -0.765018 1.317238 -0.390479 1.472377 0 1.472377 
z
"/>
    </defs>
    <g clip-path="url(#p56751616c3)">
     <use xlink:href="#me8d0f98260" x="166.308109" y="123.053793" style="fill: #008000; fill-opacity: 0.7"/>
    </g>
   </g>
   <g id="PathCollection_11">
    <defs>
     <path id="m094d2a5c6c" d="M 0 1.865347 
C 0.494696 1.865347 0.969197 1.668802 1.318999 1.318999 
C 1.668802 0.969197 1.865347 0.494696 1.865347 0 
C 1.865347 -0.494696 1.668802 -0.969197 1.318999 -1.318999 
C 0.969197 -1.668802 0.494696 -1.865347 0 -1.865347 
C -0.494696 -1.865347 -0.969197 -1.668802 -1.318999 -1.318999 
C -1.668802 -0.969197 -1.865347 -0.494696 -1.865347 0 
C -1.865347 0.494696 -1.668802 0.969197 -1.318999 1.318999 
C -0.969197 1.668802 -0.494696 1.865347 0 1.865347 
z
"/>
    </defs>
    <g clip-path="url(#p56751616c3)">
     <use xlink:href="#m094d2a5c6c" x="113.90043" y="119.414788" style="fill: #008000; fill-opacity: 0.7"/>
    </g>
   </g>
   <g id="PathCollection_12">
    <defs>
     <path id="mde532539e4" d="M 0 1.499071 
C 0.397558 1.499071 0.778887 1.341119 1.060003 1.060003 
C 1.341119 0.778887 1.499071 0.397558 1.499071 0 
C 1.499071 -0.397558 1.341119 -0.778887 1.060003 -1.060003 
C 0.778887 -1.341119 0.397558 -1.499071 0 -1.499071 
C -0.397558 -1.499071 -0.778887 -1.341119 -1.060003 -1.060003 
C -1.341119 -0.778887 -1.499071 -0.397558 -1.499071 0 
C -1.499071 0.397558 -1.341119 0.778887 -1.060003 1.060003 
C -0.778887 1.341119 -0.397558 1.499071 0 1.499071 
z
"/>
    </defs>
    <g clip-path="url(#p56751616c3)">
     <use xlink:href="#mde532539e4" x="136.133991" y="125.279644" style="fill: #008000; fill-opacity: 0.7"/>
    </g>
   </g>
   <g id="PathCollection_13">
    <defs>
     <path id="md7fe1783ed" d="M 0 1.085727 
C 0.287938 1.085727 0.564122 0.971328 0.767725 0.767725 
C 0.971328 0.564122 1.085727 0.287938 1.085727 0 
C 1.085727 -0.287938 0.971328 -0.564122 0.767725 -0.767725 
C 0.564122 -0.971328 0.287938 -1.085727 0 -1.085727 
C -0.287938 -1.085727 -0.564122 -0.971328 -0.767725 -0.767725 
C -0.971328 -0.564122 -1.085727 -0.287938 -1.085727 0 
C -1.085727 0.287938 -0.971328 0.564122 -0.767725 0.767725 
C -0.564122 0.971328 -0.287938 1.085727 0 1.085727 
z
"/>
    </defs>
    <g clip-path="url(#p56751616c3)">
     <use xlink:href="#md7fe1783ed" x="198.070338" y="141.703872" style="fill: #008000; fill-opacity: 0.7"/>
    </g>
   </g>
   <g id="PathCollection_14">
    <defs>
     <path id="m36a1bd766d" d="M 0 1.665083 
C 0.441585 1.665083 0.865144 1.48964 1.177392 1.177392 
C 1.48964 0.865144 1.665083 0.441585 1.665083 0 
C 1.665083 -0.441585 1.48964 -0.865144 1.177392 -1.177392 
C 0.865144 -1.48964 0.441585 -1.665083 0 -1.665083 
C -0.441585 -1.665083 -0.865144 -1.48964 -1.177392 -1.177392 
C -1.48964 -0.865144 -1.665083 -0.441585 -1.665083 0 
C -1.665083 0.441585 -1.48964 0.865144 -1.177392 1.177392 
C -0.865144 1.48964 -0.441585 1.665083 0 1.665083 
z
"/>
    </defs>
    <g clip-path="url(#p56751616c3)">
     <use xlink:href="#m36a1bd766d" x="169.484332" y="120.816567" style="fill: #008000; fill-opacity: 0.7"/>
    </g>
   </g>
   <g id="PathCollection_15">
    <defs>
     <path id="m7115bf7091" d="M 0 1.0714 
C 0.284139 1.0714 0.556678 0.95851 0.757594 0.757594 
C 0.95851 0.556678 1.0714 0.284139 1.0714 0 
C 1.0714 -0.284139 0.95851 -0.556678 0.757594 -0.757594 
C 0.556678 -0.95851 0.284139 -1.0714 0 -1.0714 
C -0.284139 -1.0714 -0.556678 -0.95851 -0.757594 -0.757594 
C -0.95851 -0.556678 -1.0714 -0.284139 -1.0714 0 
C -1.0714 0.284139 -0.95851 0.556678 -0.757594 0.757594 
C -0.556678 0.95851 -0.284139 1.0714 0 1.0714 
z
"/>
    </defs>
    <g clip-path="url(#p56751616c3)">
     <use xlink:href="#m7115bf7091" x="186.953558" y="140.613936" style="fill: #008000; fill-opacity: 0.7"/>
    </g>
   </g>
   <g id="PathCollection_16">
    <defs>
     <path id="m567a6f7918" d="M 0 0.91516 
C 0.242703 0.91516 0.475498 0.818733 0.647116 0.647116 
C 0.818733 0.475498 0.91516 0.242703 0.91516 0 
C 0.91516 -0.242703 0.818733 -0.475498 0.647116 -0.647116 
C 0.475498 -0.818733 0.242703 -0.91516 0 -0.91516 
C -0.242703 -0.91516 -0.475498 -0.818733 -0.647116 -0.647116 
C -0.818733 -0.475498 -0.91516 -0.242703 -0.91516 0 
C -0.91516 0.242703 -0.818733 0.475498 -0.647116 0.647116 
C -0.475498 0.818733 -0.242703 0.91516 0 0.91516 
z
"/>
    </defs>
    <g clip-path="url(#p56751616c3)">
     <use xlink:href="#m567a6f7918" x="107.547984" y="159.137257" style="fill: #008000; fill-opacity: 0.7"/>
    </g>
   </g>
   <g id="PathCollection_17">
    <defs>
     <path id="me9731c3602" d="M 0 1.423409 
C 0.377493 1.423409 0.739575 1.27343 1.006502 1.006502 
C 1.27343 0.739575 1.423409 0.377493 1.423409 0 
C 1.423409 -0.377493 1.27343 -0.739575 1.006502 -1.006502 
C 0.739575 -1.27343 0.377493 -1.423409 0 -1.423409 
C -0.377493 -1.423409 -0.739575 -1.27343 -1.006502 -1.006502 
C -1.27343 -0.739575 -1.423409 -0.377493 -1.423409 0 
C -1.423409 0.377493 -1.27343 0.739575 -1.006502 1.006502 
C -0.739575 1.27343 -0.377493 1.423409 0 1.423409 
z
"/>
    </defs>
    <g clip-path="url(#p56751616c3)">
     <use xlink:href="#me9731c3602" x="175.836778" y="131.254122" style="fill: #008000; fill-opacity: 0.7"/>
    </g>
   </g>
   <g id="PathCollection_18">
    <defs>
     <path id="m707c58a986" d="M 0 1.676907 
C 0.444721 1.676907 0.871287 1.500218 1.185752 1.185752 
C 1.500218 0.871287 1.676907 0.444721 1.676907 0 
C 1.676907 -0.444721 1.500218 -0.871287 1.185752 -1.185752 
C 0.871287 -1.500218 0.444721 -1.676907 0 -1.676907 
C -0.444721 -1.676907 -0.871287 -1.500218 -1.185752 -1.185752 
C -1.500218 -0.871287 -1.676907 -0.444721 -1.676907 0 
C -1.676907 0.444721 -1.500218 0.871287 -1.185752 1.185752 
C -0.871287 1.500218 -0.444721 1.676907 0 1.676907 
z
"/>
    </defs>
    <g clip-path="url(#p56751616c3)">
     <use xlink:href="#m707c58a986" x="172.660555" y="116.965824" style="fill: #008000; fill-opacity: 0.7"/>
    </g>
   </g>
   <g id="PathCollection_19">
    <defs>
     <path id="m5a902e17b1" d="M 0 1.452852 
C 0.385301 1.452852 0.754873 1.29977 1.027321 1.027321 
C 1.29977 0.754873 1.452852 0.385301 1.452852 0 
C 1.452852 -0.385301 1.29977 -0.754873 1.027321 -1.027321 
C 0.754873 -1.29977 0.385301 -1.452852 0 -1.452852 
C -0.385301 -1.452852 -0.754873 -1.29977 -1.027321 -1.027321 
C -1.29977 -0.754873 -1.452852 -0.385301 -1.452852 0 
C -1.452852 0.385301 -1.29977 0.754873 -1.027321 1.027321 
C -0.754873 1.29977 -0.385301 1.452852 0 1.452852 
z
"/>
    </defs>
    <g clip-path="url(#p56751616c3)">
     <use xlink:href="#m5a902e17b1" x="164.719997" y="126.951924" style="fill: #008000; fill-opacity: 0.7"/>
    </g>
   </g>
   <g id="PathCollection_20">
    <defs>
     <path id="mb5acc6817b" d="M 0 1.283686 
C 0.340438 1.283686 0.666977 1.148429 0.907703 0.907703 
C 1.148429 0.666977 1.283686 0.340438 1.283686 0 
C 1.283686 -0.340438 1.148429 -0.666977 0.907703 -0.907703 
C 0.666977 -1.148429 0.340438 -1.283686 0 -1.283686 
C -0.340438 -1.283686 -0.666977 -1.148429 -0.907703 -0.907703 
C -1.148429 -0.666977 -1.283686 -0.340438 -1.283686 0 
C -1.283686 0.340438 -1.148429 0.666977 -0.907703 0.907703 
C -0.666977 1.148429 -0.340438 1.283686 0 1.283686 
z
"/>
    </defs>
    <g clip-path="url(#p56751616c3)">
     <use xlink:href="#mb5acc6817b" x="145.66266" y="142.864437" style="fill: #008000; fill-opacity: 0.7"/>
    </g>
   </g>
   <g id="PathCollection_21">
    <defs>
     <path id="mc44523af04" d="M 0 1.262351 
C 0.334779 1.262351 0.655892 1.129341 0.892617 0.892617 
C 1.129341 0.655892 1.262351 0.334779 1.262351 0 
C 1.262351 -0.334779 1.129341 -0.655892 0.892617 -0.892617 
C 0.655892 -1.129341 0.334779 -1.262351 0 -1.262351 
C -0.334779 -1.262351 -0.655892 -1.129341 -0.892617 -0.892617 
C -1.129341 -0.655892 -1.262351 -0.334779 -1.262351 0 
C -1.262351 0.334779 -1.129341 0.655892 -0.892617 0.892617 
C -0.655892 1.129341 -0.334779 1.262351 0 1.262351 
z
"/>
    </defs>
    <g clip-path="url(#p56751616c3)">
     <use xlink:href="#mc44523af04" x="126.605322" y="144.438145" style="fill: #008000; fill-opacity: 0.7"/>
    </g>
   </g>
   <g id="PathCollection_22">
    <defs>
     <path id="mb0d1ab8a60" d="M 0 1.550769 
C 0.411269 1.550769 0.805748 1.38737 1.096559 1.096559 
C 1.38737 0.805748 1.550769 0.411269 1.550769 0 
C 1.550769 -0.411269 1.38737 -0.805748 1.096559 -1.096559 
C 0.805748 -1.38737 0.411269 -1.550769 0 -1.550769 
C -0.411269 -1.550769 -0.805748 -1.38737 -1.096559 -1.096559 
C -1.38737 -0.805748 -1.550769 -0.411269 -1.550769 0 
C -1.550769 0.411269 -1.38737 0.805748 -1.096559 1.096559 
C -0.805748 1.38737 -0.411269 1.550769 0 1.550769 
z
"/>
    </defs>
    <g clip-path="url(#p56751616c3)">
     <use xlink:href="#mb0d1ab8a60" x="191.717892" y="128.270188" style="fill: #008000; fill-opacity: 0.7"/>
    </g>
   </g>
   <g id="PathCollection_23">
    <defs>
     <path id="m29aaf464cc" d="M 0 1.456269 
C 0.386207 1.456269 0.756648 1.302827 1.029737 1.029737 
C 1.302827 0.756648 1.456269 0.386207 1.456269 0 
C 1.456269 -0.386207 1.302827 -0.756648 1.029737 -1.029737 
C 0.756648 -1.302827 0.386207 -1.456269 0 -1.456269 
C -0.386207 -1.456269 -0.756648 -1.302827 -1.029737 -1.029737 
C -1.302827 -0.756648 -1.456269 -0.386207 -1.456269 0 
C -1.456269 0.386207 -1.302827 0.756648 -1.029737 1.029737 
C -0.756648 1.302827 -0.386207 1.456269 0 1.456269 
z
"/>
    </defs>
    <g clip-path="url(#p56751616c3)">
     <use xlink:href="#m29aaf464cc" x="142.486437" y="112.30454" style="fill: #ffa500; fill-opacity: 0.7"/>
    </g>
   </g>
   <g id="PathCollection_24">
    <defs>
     <path id="md37cf122a5" d="M 0 1.822036 
C 0.48321 1.822036 0.946693 1.630055 1.288374 1.288374 
C 1.630055 0.946693 1.822036 0.48321 1.822036 0 
C 1.822036 -0.48321 1.630055 -0.946693 1.288374 -1.288374 
C 0.946693 -1.630055 0.48321 -1.822036 0 -1.822036 
C -0.48321 -1.822036 -0.946693 -1.630055 -1.288374 -1.288374 
C -1.630055 -0.946693 -1.822036 -0.48321 -1.822036 0 
C -1.822036 0.48321 -1.630055 0.946693 -1.288374 1.288374 
C -0.946693 1.630055 -0.48321 1.822036 0 1.822036 
z
"/>
    </defs>
    <g clip-path="url(#p56751616c3)">
     <use xlink:href="#md37cf122a5" x="180.601112" y="99.51144" style="fill: #ff0000; fill-opacity: 0.7"/>
    </g>
   </g>
   <g id="PathCollection_25">
    <defs>
     <path id="m7bd8a22ac2" d="M 0 9.413376 
C 2.496457 9.413376 4.891001 8.421524 6.656262 6.656262 
C 8.421524 4.891001 9.413376 2.496457 9.413376 0 
C 9.413376 -2.496457 8.421524 -4.891001 6.656262 -6.656262 
C 4.891001 -8.421524 2.496457 -9.413376 0 -9.413376 
C -2.496457 -9.413376 -4.891001 -8.421524 -6.656262 -6.656262 
C -8.421524 -4.891001 -9.413376 -2.496457 -9.413376 0 
C -9.413376 2.496457 -8.421524 4.891001 -6.656262 6.656262 
C -4.891001 8.421524 -2.496457 9.413376 0 9.413376 
z
"/>
    </defs>
    <g clip-path="url(#p56751616c3)"/>
   </g>
   <g id="PathCollection_26">
    <defs>
     <path id="m4f6953d0dc" d="M 0 1.778302 
C 0.471611 1.778302 0.92397 1.590929 1.257449 1.257449 
C 1.590929 0.92397 1.778302 0.471611 1.778302 0 
C 1.778302 -0.471611 1.590929 -0.92397 1.257449 -1.257449 
C 0.92397 -1.590929 0.471611 -1.778302 0 -1.778302 
C -0.471611 -1.778302 -0.92397 -1.590929 -1.257449 -1.257449 
C -1.590929 -0.92397 -1.778302 -0.471611 -1.778302 0 
C -1.778302 0.471611 -1.590929 0.92397 -1.257449 1.257449 
C -0.92397 1.590929 -0.471611 1.778302 0 1.778302 
z
"/>
    </defs>
    <g clip-path="url(#p56751616c3)">
     <use xlink:href="#m4f6953d0dc" x="148.838883" y="104.255033" style="fill: #008000; fill-opacity: 0.7"/>
    </g>
   </g>
   <g id="PathCollection_27">
    <defs>
     <path id="m530afcbb16" d="M 0 8.759651 
C 2.323087 8.759651 4.551338 7.836679 6.194009 6.194009 
C 7.836679 4.551338 8.759651 2.323087 8.759651 0 
C 8.759651 -2.323087 7.836679 -4.551338 6.194009 -6.194009 
C 4.551338 -7.836679 2.323087 -8.759651 0 -8.759651 
C -2.323087 -8.759651 -4.551338 -7.836679 -6.194009 -6.194009 
C -7.836679 -4.551338 -8.759651 -2.323087 -8.759651 0 
C -8.759651 2.323087 -7.836679 4.551338 -6.194009 6.194009 
C -4.551338 7.836679 -2.323087 8.759651 0 8.759651 
z
"/>
    </defs>
    <g clip-path="url(#p56751616c3)">
     <use xlink:href="#m530afcbb16" x="156.77944" y="93.145693" style="fill: #008000; fill-opacity: 0.7"/>
    </g>
   </g>
   <g id="PathCollection_28">
    <defs>
     <path id="md0a9038cd8" d="M 0 2.652387 
C 0.703421 2.652387 1.378127 2.372914 1.875521 1.875521 
C 2.372914 1.378127 2.652387 0.703421 2.652387 0 
C 2.652387 -0.703421 2.372914 -1.378127 1.875521 -1.875521 
C 1.378127 -2.372914 0.703421 -2.652387 0 -2.652387 
C -0.703421 -2.652387 -1.378127 -2.372914 -1.875521 -1.875521 
C -2.372914 -1.378127 -2.652387 -0.703421 -2.652387 0 
C -2.652387 0.703421 -2.372914 1.378127 -1.875521 1.875521 
C -1.378127 2.372914 -0.703421 2.652387 0 2.652387 
z
"/>
    </defs>
    <g clip-path="url(#p56751616c3)">
     <use xlink:href="#md0a9038cd8" x="129.781545" y="107.59541" style="fill: #008000; fill-opacity: 0.7"/>
    </g>
   </g>
   <g id="PathCollection_29">
    <defs>
     <path id="m1c8c85e9d3" d="M 0 10.761947 
C 2.854102 10.761947 5.591691 9.628 7.609846 7.609846 
C 9.628 5.591691 10.761947 2.854102 10.761947 0 
C 10.761947 -2.854102 9.628 -5.591691 7.609846 -7.609846 
C 5.591691 -9.628 2.854102 -10.761947 0 -10.761947 
C -2.854102 -10.761947 -5.591691 -9.628 -7.609846 -7.609846 
C -9.628 -5.591691 -10.761947 -2.854102 -10.761947 0 
C -10.761947 2.854102 -9.628 5.591691 -7.609846 7.609846 
C -5.591691 9.628 -2.854102 10.761947 0 10.761947 
z
"/>
    </defs>
    <g clip-path="url(#p56751616c3)">
     <use xlink:href="#m1c8c85e9d3" x="231.420679" y="88.773446" style="fill: #008000; fill-opacity: 0.7"/>
    </g>
   </g>
   <g id="PathCollection_30">
    <defs>
     <path id="m41f5d2e5cd" d="M 0 6.225091 
C 1.650914 6.225091 3.234432 5.569177 4.401804 4.401804 
C 5.569177 3.234432 6.225091 1.650914 6.225091 0 
C 6.225091 -1.650914 5.569177 -3.234432 4.401804 -4.401804 
C 3.234432 -5.569177 1.650914 -6.225091 0 -6.225091 
C -1.650914 -6.225091 -3.234432 -5.569177 -4.401804 -4.401804 
C -5.569177 -3.234432 -6.225091 -1.650914 -6.225091 0 
C -6.225091 1.650914 -5.569177 3.234432 -4.401804 4.401804 
C -3.234432 5.569177 -1.650914 6.225091 0 6.225091 
z
"/>
    </defs>
    <g clip-path="url(#p56751616c3)">
     <use xlink:href="#m41f5d2e5cd" x="175.836778" y="100.485869" style="fill: #008000; fill-opacity: 0.7"/>
    </g>
   </g>
   <g id="PathCollection_31">
    <defs>
     <path id="m1f7e434c7d" d="M 0 1.338304 
C 0.354922 1.338304 0.695356 1.197292 0.946324 0.946324 
C 1.197292 0.695356 1.338304 0.354922 1.338304 0 
C 1.338304 -0.354922 1.197292 -0.695356 0.946324 -0.946324 
C 0.695356 -1.197292 0.354922 -1.338304 0 -1.338304 
C -0.354922 -1.338304 -0.695356 -1.197292 -0.946324 -0.946324 
C -1.197292 -0.695356 -1.338304 -0.354922 -1.338304 0 
C -1.338304 0.354922 -1.197292 0.695356 -0.946324 0.946324 
C -0.695356 1.197292 -0.354922 1.338304 0 1.338304 
z
"/>
    </defs>
    <g clip-path="url(#p56751616c3)">
     <use xlink:href="#m1f7e434c7d" x="101.195538" y="144.410673" style="fill: #008000; fill-opacity: 0.7"/>
    </g>
   </g>
   <g id="PathCollection_32">
    <defs>
     <path id="mb0cacada32" d="M 0 1.214817 
C 0.322173 1.214817 0.631195 1.086817 0.859006 0.859006 
C 1.086817 0.631195 1.214817 0.322173 1.214817 0 
C 1.214817 -0.322173 1.086817 -0.631195 0.859006 -0.859006 
C 0.631195 -1.086817 0.322173 -1.214817 0 -1.214817 
C -0.322173 -1.214817 -0.631195 -1.086817 -0.859006 -0.859006 
C -1.086817 -0.631195 -1.214817 -0.322173 -1.214817 0 
C -1.214817 0.322173 -1.086817 0.631195 -0.859006 0.859006 
C -0.631195 1.086817 -0.322173 1.214817 0 1.214817 
z
"/>
    </defs>
    <g clip-path="url(#p56751616c3)">
     <use xlink:href="#mb0cacada32" x="71.02142" y="158.764644" style="fill: #008000; fill-opacity: 0.7"/>
    </g>
   </g>
   <g id="PathCollection_33">
    <defs>
     <path id="m93c84d3eac" d="M 0 1.342627 
C 0.356069 1.342627 0.697602 1.201159 0.94938 0.94938 
C 1.201159 0.697602 1.342627 0.356069 1.342627 0 
C 1.342627 -0.356069 1.201159 -0.697602 0.94938 -0.94938 
C 0.697602 -1.201159 0.356069 -1.342627 0 -1.342627 
C -0.356069 -1.342627 -0.697602 -1.201159 -0.94938 -0.94938 
C -1.201159 -0.697602 -1.342627 -0.356069 -1.342627 0 
C -1.342627 0.356069 -1.201159 0.697602 -0.94938 0.94938 
C -0.697602 1.201159 -0.356069 1.342627 0 1.342627 
z
"/>
    </defs>
    <g clip-path="url(#p56751616c3)">
     <use xlink:href="#m93c84d3eac" x="315.590587" y="127.093326" style="fill: #008000; fill-opacity: 0.7"/>
    </g>
   </g>
   <g id="PathCollection_34">
    <defs>
     <path id="m2341b0e2ab" d="M 0 1.58194 
C 0.419535 1.58194 0.821944 1.415257 1.118601 1.118601 
C 1.415257 0.821944 1.58194 0.419535 1.58194 0 
C 1.58194 -0.419535 1.415257 -0.821944 1.118601 -1.118601 
C 0.821944 -1.415257 0.419535 -1.58194 0 -1.58194 
C -0.419535 -1.58194 -0.821944 -1.415257 -1.118601 -1.118601 
C -1.415257 -0.821944 -1.58194 -0.419535 -1.58194 0 
C -1.58194 0.419535 -1.415257 0.821944 -1.118601 1.118601 
C -0.821944 1.415257 -0.419535 1.58194 0 1.58194 
z
"/>
    </defs>
    <g clip-path="url(#p56751616c3)">
     <use xlink:href="#m2341b0e2ab" x="142.486437" y="131.29802" style="fill: #008000; fill-opacity: 0.7"/>
    </g>
   </g>
   <g id="PathCollection_35">
    <defs>
     <path id="m7d98b3422d" d="M 0 1.593951 
C 0.422721 1.593951 0.828185 1.426002 1.127094 1.127094 
C 1.426002 0.828185 1.593951 0.422721 1.593951 0 
C 1.593951 -0.422721 1.426002 -0.828185 1.127094 -1.127094 
C 0.828185 -1.426002 0.422721 -1.593951 0 -1.593951 
C -0.422721 -1.593951 -0.828185 -1.426002 -1.127094 -1.127094 
C -1.426002 -0.828185 -1.593951 -0.422721 -1.593951 0 
C -1.593951 0.422721 -1.426002 0.828185 -1.127094 1.127094 
C -0.828185 1.426002 -0.422721 1.593951 0 1.593951 
z
"/>
    </defs>
    <g clip-path="url(#p56751616c3)">
     <use xlink:href="#m7d98b3422d" x="255.242351" y="124.084466" style="fill: #008000; fill-opacity: 0.7"/>
    </g>
   </g>
   <g id="PathCollection_36">
    <defs>
     <path id="m92b546baed" d="M 0 1.704377 
C 0.452006 1.704377 0.88556 1.524793 1.205177 1.205177 
C 1.524793 0.88556 1.704377 0.452006 1.704377 0 
C 1.704377 -0.452006 1.524793 -0.88556 1.205177 -1.205177 
C 0.88556 -1.524793 0.452006 -1.704377 0 -1.704377 
C -0.452006 -1.704377 -0.88556 -1.524793 -1.205177 -1.205177 
C -1.524793 -0.88556 -1.704377 -0.452006 -1.704377 0 
C -1.704377 0.452006 -1.524793 0.88556 -1.205177 1.205177 
C -0.88556 1.524793 -0.452006 1.704377 0 1.704377 
z
"/>
    </defs>
    <g clip-path="url(#p56751616c3)">
     <use xlink:href="#m92b546baed" x="150.426994" y="103.131998" style="fill: #008000; fill-opacity: 0.7"/>
    </g>
   </g>
   <g id="PathCollection_37">
    <defs>
     <path id="m0fa38fd833" d="M 0 9.769075 
C 2.590789 9.769075 5.075814 8.739743 6.907779 6.907779 
C 8.739743 5.075814 9.769075 2.590789 9.769075 0 
C 9.769075 -2.590789 8.739743 -5.075814 6.907779 -6.907779 
C 5.075814 -8.739743 2.590789 -9.769075 0 -9.769075 
C -2.590789 -9.769075 -5.075814 -8.739743 -6.907779 -6.907779 
C -8.739743 -5.075814 -9.769075 -2.590789 -9.769075 0 
C -9.769075 2.590789 -8.739743 5.075814 -6.907779 6.907779 
C -5.075814 8.739743 -2.590789 9.769075 0 9.769075 
z
"/>
    </defs>
    <g clip-path="url(#p56751616c3)">
     <use xlink:href="#m0fa38fd833" x="272.711577" y="83.453882" style="fill: #008000; fill-opacity: 0.7"/>
    </g>
   </g>
   <g id="PathCollection_38">
    <defs>
     <path id="m65ed5e765f" d="M 0 10.668497 
C 2.829318 10.668497 5.543136 9.544397 7.543767 7.543767 
C 9.544397 5.543136 10.668497 2.829318 10.668497 0 
C 10.668497 -2.829318 9.544397 -5.543136 7.543767 -7.543767 
C 5.543136 -9.544397 2.829318 -10.668497 0 -10.668497 
C -2.829318 -10.668497 -5.543136 -9.544397 -7.543767 -7.543767 
C -9.544397 -5.543136 -10.668497 -2.829318 -10.668497 0 
C -10.668497 2.829318 -9.544397 5.543136 -7.543767 7.543767 
C -5.543136 9.544397 -2.829318 10.668497 0 10.668497 
z
"/>
    </defs>
    <g clip-path="url(#p56751616c3)">
     <use xlink:href="#m65ed5e765f" x="272.711577" y="82.17445" style="fill: #ff0000; fill-opacity: 0.7"/>
    </g>
   </g>
   <g id="PathCollection_39">
    <defs>
     <path id="m42f94dd17c" d="M 0 13.298302 
C 3.526751 13.298302 6.90953 11.897109 9.40332 9.40332 
C 11.897109 6.90953 13.298302 3.526751 13.298302 0 
C 13.298302 -3.526751 11.897109 -6.90953 9.40332 -9.40332 
C 6.90953 -11.897109 3.526751 -13.298302 0 -13.298302 
C -3.526751 -13.298302 -6.90953 -11.897109 -9.40332 -9.40332 
C -11.897109 -6.90953 -13.298302 -3.526751 -13.298302 0 
C -13.298302 3.526751 -11.897109 6.90953 -9.40332 9.40332 
C -6.90953 11.897109 -3.526751 13.298302 0 13.298302 
z
"/>
    </defs>
    <g clip-path="url(#p56751616c3)">
     <use xlink:href="#m42f94dd17c" x="123.429099" y="76.303592" style="fill: #008000; fill-opacity: 0.7"/>
    </g>
   </g>
   <g id="PathCollection_40">
    <defs>
     <path id="m6d63ca5ada" d="M 0 10.036921 
C 2.661823 10.036921 5.214982 8.979368 7.097175 7.097175 
C 8.979368 5.214982 10.036921 2.661823 10.036921 0 
C 10.036921 -2.661823 8.979368 -5.214982 7.097175 -7.097175 
C 5.214982 -8.979368 2.661823 -10.036921 0 -10.036921 
C -2.661823 -10.036921 -5.214982 -8.979368 -7.097175 -7.097175 
C -8.979368 -5.214982 -10.036921 -2.661823 -10.036921 0 
C -10.036921 2.661823 -8.979368 5.214982 -7.097175 7.097175 
C -5.214982 8.979368 -2.661823 10.036921 0 10.036921 
z
"/>
    </defs>
    <g clip-path="url(#p56751616c3)">
     <use xlink:href="#m6d63ca5ada" x="198.070338" y="95.439443" style="fill: #008000; fill-opacity: 0.7"/>
    </g>
   </g>
   <g id="PathCollection_41">
    <defs>
     <path id="m36b812bad8" d="M 0 7.870828 
C 2.087368 7.870828 4.089524 7.041508 5.565516 5.565516 
C 7.041508 4.089524 7.870828 2.087368 7.870828 0 
C 7.870828 -2.087368 7.041508 -4.089524 5.565516 -5.565516 
C 4.089524 -7.041508 2.087368 -7.870828 0 -7.870828 
C -2.087368 -7.870828 -4.089524 -7.041508 -5.565516 -5.565516 
C -7.041508 -4.089524 -7.870828 -2.087368 -7.870828 0 
C -7.870828 2.087368 -7.041508 4.089524 -5.565516 5.565516 
C -4.089524 7.041508 -2.087368 7.870828 0 7.870828 
z
"/>
    </defs>
    <g clip-path="url(#p56751616c3)">
     <use xlink:href="#m36b812bad8" x="82.138201" y="96.834063" style="fill: #008000; fill-opacity: 0.7"/>
    </g>
   </g>
   <g id="PathCollection_42">
    <defs>
     <path id="m3d15578460" d="M 0 1.741995 
C 0.461982 1.741995 0.905105 1.558447 1.231776 1.231776 
C 1.558447 0.905105 1.741995 0.461982 1.741995 0 
C 1.741995 -0.461982 1.558447 -0.905105 1.231776 -1.231776 
C 0.905105 -1.558447 0.461982 -1.741995 0 -1.741995 
C -0.461982 -1.741995 -0.905105 -1.558447 -1.231776 -1.231776 
C -1.558447 -0.905105 -1.741995 -0.461982 -1.741995 0 
C -1.741995 0.461982 -1.558447 0.905105 -1.231776 1.231776 
C -0.905105 1.558447 -0.461982 1.741995 0 1.741995 
z
"/>
    </defs>
    <g clip-path="url(#p56751616c3)">
     <use xlink:href="#m3d15578460" x="264.77102" y="97.109214" style="fill: #008000; fill-opacity: 0.7"/>
    </g>
   </g>
   <g id="PathCollection_43">
    <defs>
     <path id="m33679e3363" d="M 0 1.522365 
C 0.403736 1.522365 0.79099 1.361959 1.076475 1.076475 
C 1.361959 0.79099 1.522365 0.403736 1.522365 0 
C 1.522365 -0.403736 1.361959 -0.79099 1.076475 -1.076475 
C 0.79099 -1.361959 0.403736 -1.522365 0 -1.522365 
C -0.403736 -1.522365 -0.79099 -1.361959 -1.076475 -1.076475 
C -1.361959 -0.79099 -1.522365 -0.403736 -1.522365 0 
C -1.522365 0.403736 -1.361959 0.79099 -1.076475 1.076475 
C -0.79099 1.361959 -0.403736 1.522365 0 1.522365 
z
"/>
    </defs>
    <g clip-path="url(#p56751616c3)">
     <use xlink:href="#m33679e3363" x="185.365446" y="108.070758" style="fill: #008000; fill-opacity: 0.7"/>
    </g>
   </g>
   <g id="PathCollection_44">
    <defs>
     <path id="mb52bb4657e" d="M 0 1.708726 
C 0.453159 1.708726 0.887819 1.528683 1.208251 1.208251 
C 1.528683 0.887819 1.708726 0.453159 1.708726 0 
C 1.708726 -0.453159 1.528683 -0.887819 1.208251 -1.208251 
C 0.887819 -1.528683 0.453159 -1.708726 0 -1.708726 
C -0.453159 -1.708726 -0.887819 -1.528683 -1.208251 -1.208251 
C -1.528683 -0.887819 -1.708726 -0.453159 -1.708726 0 
C -1.708726 0.453159 -1.528683 0.887819 -1.208251 1.208251 
C -0.887819 1.528683 -0.453159 1.708726 0 1.708726 
z
"/>
    </defs>
    <g clip-path="url(#p56751616c3)">
     <use xlink:href="#mb52bb4657e" x="172.660555" y="109.996631" style="fill: #ff0000; fill-opacity: 0.7"/>
    </g>
   </g>
   <g id="PathCollection_45">
    <defs>
     <path id="m8cf73ed512" d="M 0 10.713703 
C 2.841307 10.713703 5.566624 9.584839 7.575732 7.575732 
C 9.584839 5.566624 10.713703 2.841307 10.713703 0 
C 10.713703 -2.841307 9.584839 -5.566624 7.575732 -7.575732 
C 5.566624 -9.584839 2.841307 -10.713703 0 -10.713703 
C -2.841307 -10.713703 -5.566624 -9.584839 -7.575732 -7.575732 
C -9.584839 -5.566624 -10.713703 -2.841307 -10.713703 0 
C -10.713703 2.841307 -9.584839 5.566624 -7.575732 7.575732 
C -5.566624 9.584839 -2.841307 10.713703 0 10.713703 
z
"/>
    </defs>
    <g clip-path="url(#p56751616c3)">
     <use xlink:href="#m8cf73ed512" x="164.719997" y="63.820981" style="fill: #008000; fill-opacity: 0.7"/>
    </g>
   </g>
   <g id="PathCollection_46">
    <defs>
     <path id="m00a349f500" d="M 0 8.001023 
C 2.121896 8.001023 4.157171 7.157985 5.657578 5.657578 
C 7.157985 4.157171 8.001023 2.121896 8.001023 0 
C 8.001023 -2.121896 7.157985 -4.157171 5.657578 -5.657578 
C 4.157171 -7.157985 2.121896 -8.001023 0 -8.001023 
C -2.121896 -8.001023 -4.157171 -7.157985 -5.657578 -5.657578 
C -7.157985 -4.157171 -8.001023 -2.121896 -8.001023 0 
C -8.001023 2.121896 -7.157985 4.157171 -5.657578 5.657578 
C -4.157171 7.157985 -2.121896 8.001023 0 8.001023 
z
"/>
    </defs>
    <g clip-path="url(#p56751616c3)">
     <use xlink:href="#m00a349f500" x="186.953558" y="79.969782" style="fill: #008000; fill-opacity: 0.7"/>
    </g>
   </g>
   <g id="PathCollection_47">
    <defs>
     <path id="mfb16765c5b" d="M 0 9.488755 
C 2.516447 9.488755 4.930166 8.48896 6.709563 6.709563 
C 8.48896 4.930166 9.488755 2.516447 9.488755 0 
C 9.488755 -2.516447 8.48896 -4.930166 6.709563 -6.709563 
C 4.930166 -8.48896 2.516447 -9.488755 0 -9.488755 
C -2.516447 -9.488755 -4.930166 -8.48896 -6.709563 -6.709563 
C -8.48896 -4.930166 -9.488755 -2.516447 -9.488755 0 
C -9.488755 2.516447 -8.48896 4.930166 -6.709563 6.709563 
C -4.930166 8.48896 -2.516447 9.488755 0 9.488755 
z
"/>
    </defs>
    <g clip-path="url(#p56751616c3)">
     <use xlink:href="#mfb16765c5b" x="132.957768" y="96.916593" style="fill: #008000; fill-opacity: 0.7"/>
    </g>
   </g>
   <g id="PathCollection_48">
    <defs>
     <path id="mc9bed5aada" d="M 0 1.731649 
C 0.459239 1.731649 0.89973 1.549192 1.224461 1.224461 
C 1.549192 0.89973 1.731649 0.459239 1.731649 0 
C 1.731649 -0.459239 1.549192 -0.89973 1.224461 -1.224461 
C 0.89973 -1.549192 0.459239 -1.731649 0 -1.731649 
C -0.459239 -1.731649 -0.89973 -1.549192 -1.224461 -1.224461 
C -1.549192 -0.89973 -1.731649 -0.459239 -1.731649 0 
C -1.731649 0.459239 -1.549192 0.89973 -1.224461 1.224461 
C -0.89973 1.549192 -0.459239 1.731649 0 1.731649 
z
"/>
    </defs>
    <g clip-path="url(#p56751616c3)">
     <use xlink:href="#mc9bed5aada" x="347.352817" y="75.570611" style="fill: #008000; fill-opacity: 0.7"/>
    </g>
   </g>
   <g id="PathCollection_49">
    <defs>
     <path id="m4ee85142c4" d="M 0 9.406426 
C 2.494613 9.406426 4.88739 8.415306 6.651348 6.651348 
C 8.415306 4.88739 9.406426 2.494613 9.406426 0 
C 9.406426 -2.494613 8.415306 -4.88739 6.651348 -6.651348 
C 4.88739 -8.415306 2.494613 -9.406426 0 -9.406426 
C -2.494613 -9.406426 -4.88739 -8.415306 -6.651348 -6.651348 
C -8.415306 -4.88739 -9.406426 -2.494613 -9.406426 0 
C -9.406426 2.494613 -8.415306 4.88739 -6.651348 6.651348 
C -4.88739 8.415306 -2.494613 9.406426 0 9.406426 
z
"/>
    </defs>
    <g clip-path="url(#p56751616c3)">
     <use xlink:href="#m4ee85142c4" x="323.531144" y="83.479534" style="fill: #008000; fill-opacity: 0.7"/>
    </g>
   </g>
   <g id="PathCollection_50">
    <defs>
     <path id="m3ed9f8ac69" d="M 0 5.178201 
C 1.373275 5.178201 2.690489 4.632593 3.661541 3.661541 
C 4.632593 2.690489 5.178201 1.373275 5.178201 0 
C 5.178201 -1.373275 4.632593 -2.690489 3.661541 -3.661541 
C 2.690489 -4.632593 1.373275 -5.178201 0 -5.178201 
C -1.373275 -5.178201 -2.690489 -4.632593 -3.661541 -3.661541 
C -4.632593 -2.690489 -5.178201 -1.373275 -5.178201 0 
C -5.178201 1.373275 -4.632593 2.690489 -3.661541 3.661541 
C -2.690489 4.632593 -1.373275 5.178201 0 5.178201 
z
"/>
    </defs>
    <g clip-path="url(#p56751616c3)">
     <use xlink:href="#m3ed9f8ac69" x="161.543774" y="97.743698" style="fill: #008000; fill-opacity: 0.7"/>
    </g>
   </g>
   <g id="PathCollection_51">
    <defs>
     <path id="me2a9f37977" d="M 0 1.690321 
C 0.448278 1.690321 0.878257 1.512219 1.195238 1.195238 
C 1.512219 0.878257 1.690321 0.448278 1.690321 0 
C 1.690321 -0.448278 1.512219 -0.878257 1.195238 -1.195238 
C 0.878257 -1.512219 0.448278 -1.690321 0 -1.690321 
C -0.448278 -1.690321 -0.878257 -1.512219 -1.195238 -1.195238 
C -1.512219 -0.878257 -1.690321 -0.448278 -1.690321 0 
C -1.690321 0.448278 -1.512219 0.878257 -1.195238 1.195238 
C -0.878257 1.512219 -0.448278 1.690321 0 1.690321 
z
"/>
    </defs>
    <g clip-path="url(#p56751616c3)">
     <use xlink:href="#me2a9f37977" x="166.308109" y="112.772379" style="fill: #0000ff; fill-opacity: 0.7"/>
    </g>
   </g>
   <g id="PathCollection_52">
    <defs>
     <path id="mccfa423624" d="M 0 1.898066 
C 0.503373 1.898066 0.986197 1.698074 1.342136 1.342136 
C 1.698074 0.986197 1.898066 0.503373 1.898066 0 
C 1.898066 -0.503373 1.698074 -0.986197 1.342136 -1.342136 
C 0.986197 -1.698074 0.503373 -1.898066 0 -1.898066 
C -0.503373 -1.898066 -0.986197 -1.698074 -1.342136 -1.342136 
C -1.698074 -0.986197 -1.898066 -0.503373 -1.898066 0 
C -1.898066 0.503373 -1.698074 0.986197 -1.342136 1.342136 
C -0.986197 1.698074 -0.503373 1.898066 0 1.898066 
z
"/>
    </defs>
    <g clip-path="url(#p56751616c3)">
     <use xlink:href="#mccfa423624" x="161.543774" y="121.201114" style="fill: #008000; fill-opacity: 0.7"/>
    </g>
   </g>
   <g id="PathCollection_53">
    <defs>
     <path id="m9445a996a1" d="M 0 1.508759 
C 0.400128 1.508759 0.783921 1.349787 1.066854 1.066854 
C 1.349787 0.783921 1.508759 0.400128 1.508759 0 
C 1.508759 -0.400128 1.349787 -0.783921 1.066854 -1.066854 
C 0.783921 -1.349787 0.400128 -1.508759 0 -1.508759 
C -0.400128 -1.508759 -0.783921 -1.349787 -1.066854 -1.066854 
C -1.349787 -0.783921 -1.508759 -0.400128 -1.508759 0 
C -1.508759 0.400128 -1.349787 0.783921 -1.066854 1.066854 
C -0.783921 1.349787 -0.400128 1.508759 0 1.508759 
z
"/>
    </defs>
    <g clip-path="url(#p56751616c3)">
     <use xlink:href="#m9445a996a1" x="107.547984" y="129.20946" style="fill: #0000ff; fill-opacity: 0.7"/>
    </g>
   </g>
   <g id="PathCollection_54">
    <defs>
     <path id="mc6409039e1" d="M 0 1.897949 
C 0.503342 1.897949 0.986136 1.697969 1.342053 1.342053 
C 1.697969 0.986136 1.897949 0.503342 1.897949 0 
C 1.897949 -0.503342 1.697969 -0.986136 1.342053 -1.342053 
C 0.986136 -1.697969 0.503342 -1.897949 0 -1.897949 
C -0.503342 -1.897949 -0.986136 -1.697969 -1.342053 -1.342053 
C -1.697969 -0.986136 -1.897949 -0.503342 -1.897949 0 
C -1.897949 0.503342 -1.697969 0.986136 -1.342053 1.342053 
C -0.986136 1.697969 -0.503342 1.897949 0 1.897949 
z
"/>
    </defs>
    <g clip-path="url(#p56751616c3)">
     <use xlink:href="#mc6409039e1" x="112.312319" y="128.152429" style="fill: #008000; fill-opacity: 0.7"/>
    </g>
   </g>
   <g id="PathCollection_55">
    <defs>
     <path id="mdf194bda36" d="M 0 1.68635 
C 0.447225 1.68635 0.876193 1.508665 1.192429 1.192429 
C 1.508665 0.876193 1.68635 0.447225 1.68635 0 
C 1.68635 -0.447225 1.508665 -0.876193 1.192429 -1.192429 
C 0.876193 -1.508665 0.447225 -1.68635 0 -1.68635 
C -0.447225 -1.68635 -0.876193 -1.508665 -1.192429 -1.192429 
C -1.508665 -0.876193 -1.68635 -0.447225 -1.68635 0 
C -1.68635 0.447225 -1.508665 0.876193 -1.192429 1.192429 
C -0.876193 1.508665 -0.447225 1.68635 0 1.68635 
z
"/>
    </defs>
    <g clip-path="url(#p56751616c3)">
     <use xlink:href="#mdf194bda36" x="153.603217" y="104.738092" style="fill: #0000ff; fill-opacity: 0.7"/>
    </g>
   </g>
   <g id="PathCollection_56">
    <defs>
     <path id="m65f47124c5" d="M 0 1.869003 
C 0.495665 1.869003 0.971096 1.672073 1.321585 1.321585 
C 1.672073 0.971096 1.869003 0.495665 1.869003 0 
C 1.869003 -0.495665 1.672073 -0.971096 1.321585 -1.321585 
C 0.971096 -1.672073 0.495665 -1.869003 0 -1.869003 
C -0.495665 -1.869003 -0.971096 -1.672073 -1.321585 -1.321585 
C -1.672073 -0.971096 -1.869003 -0.495665 -1.869003 0 
C -1.869003 0.495665 -1.672073 0.971096 -1.321585 1.321585 
C -0.971096 1.672073 -0.495665 1.869003 0 1.869003 
z
"/>
    </defs>
    <g clip-path="url(#p56751616c3)">
     <use xlink:href="#m65f47124c5" x="209.187119" y="114.381542" style="fill: #008000; fill-opacity: 0.7"/>
    </g>
   </g>
   <g id="PathCollection_57">
    <defs>
     <path id="m18bd3f6acf" d="M 0 1.59593 
C 0.423246 1.59593 0.829213 1.427773 1.128493 1.128493 
C 1.427773 0.829213 1.59593 0.423246 1.59593 0 
C 1.59593 -0.423246 1.427773 -0.829213 1.128493 -1.128493 
C 0.829213 -1.427773 0.423246 -1.59593 0 -1.59593 
C -0.423246 -1.59593 -0.829213 -1.427773 -1.128493 -1.128493 
C -1.427773 -0.829213 -1.59593 -0.423246 -1.59593 0 
C -1.59593 0.423246 -1.427773 0.829213 -1.128493 1.128493 
C -0.829213 1.427773 -0.423246 1.59593 0 1.59593 
z
"/>
    </defs>
    <g clip-path="url(#p56751616c3)">
     <use xlink:href="#m18bd3f6acf" x="207.599007" y="112.988146" style="fill: #0000ff; fill-opacity: 0.7"/>
    </g>
   </g>
   <g id="PathCollection_58">
    <defs>
     <path id="mae170bdf04" d="M 0 1.676728 
C 0.444674 1.676728 0.871194 1.500058 1.185626 1.185626 
C 1.500058 0.871194 1.676728 0.444674 1.676728 0 
C 1.676728 -0.444674 1.500058 -0.871194 1.185626 -1.185626 
C 0.871194 -1.500058 0.444674 -1.676728 0 -1.676728 
C -0.444674 -1.676728 -0.871194 -1.500058 -1.185626 -1.185626 
C -1.500058 -0.871194 -1.676728 -0.444674 -1.676728 0 
C -1.676728 0.444674 -1.500058 0.871194 -1.185626 1.185626 
C -0.871194 1.500058 -0.444674 1.676728 0 1.676728 
z
"/>
    </defs>
    <g clip-path="url(#p56751616c3)">
     <use xlink:href="#mae170bdf04" x="223.480122" y="122.14396" style="fill: #008000; fill-opacity: 0.7"/>
    </g>
   </g>
   <g id="PathCollection_59">
    <defs>
     <path id="mb3e50a5e5c" d="M 0 1.844919 
C 0.489278 1.844919 0.958583 1.650526 1.304554 1.304554 
C 1.650526 0.958583 1.844919 0.489278 1.844919 0 
C 1.844919 -0.489278 1.650526 -0.958583 1.304554 -1.304554 
C 0.958583 -1.650526 0.489278 -1.844919 0 -1.844919 
C -0.489278 -1.844919 -0.958583 -1.650526 -1.304554 -1.304554 
C -1.650526 -0.958583 -1.844919 -0.489278 -1.844919 0 
C -1.844919 0.489278 -1.650526 0.958583 -1.304554 1.304554 
C -0.958583 1.650526 -0.489278 1.844919 0 1.844919 
z
"/>
    </defs>
    <g clip-path="url(#p56751616c3)">
     <use xlink:href="#mb3e50a5e5c" x="104.371761" y="116.87702" style="fill: #0000ff; fill-opacity: 0.7"/>
    </g>
   </g>
   <g id="PathCollection_60">
    <defs>
     <path id="me4945381f3" d="M 0 2.068718 
C 0.54863 2.068718 1.074864 1.850745 1.462805 1.462805 
C 1.850745 1.074864 2.068718 0.54863 2.068718 0 
C 2.068718 -0.54863 1.850745 -1.074864 1.462805 -1.462805 
C 1.074864 -1.850745 0.54863 -2.068718 0 -2.068718 
C -0.54863 -2.068718 -1.074864 -1.850745 -1.462805 -1.462805 
C -1.850745 -1.074864 -2.068718 -0.54863 -2.068718 0 
C -2.068718 0.54863 -1.850745 1.074864 -1.462805 1.462805 
C -1.074864 1.850745 -0.54863 2.068718 0 2.068718 
z
"/>
    </defs>
    <g clip-path="url(#p56751616c3)">
     <use xlink:href="#me4945381f3" x="85.314424" y="123.394008" style="fill: #008000; fill-opacity: 0.7"/>
    </g>
   </g>
   <g id="PathCollection_61">
    <defs>
     <path id="m082ce67c78" d="M 0 1.57171 
C 0.416822 1.57171 0.816629 1.406105 1.111367 1.111367 
C 1.406105 0.816629 1.57171 0.416822 1.57171 0 
C 1.57171 -0.416822 1.406105 -0.816629 1.111367 -1.111367 
C 0.816629 -1.406105 0.416822 -1.57171 0 -1.57171 
C -0.416822 -1.57171 -0.816629 -1.406105 -1.111367 -1.111367 
C -1.406105 -0.816629 -1.57171 -0.416822 -1.57171 0 
C -1.57171 0.416822 -1.406105 0.816629 -1.111367 1.111367 
C -0.816629 1.406105 -0.416822 1.57171 0 1.57171 
z
"/>
    </defs>
    <g clip-path="url(#p56751616c3)">
     <use xlink:href="#m082ce67c78" x="78.961978" y="127.263021" style="fill: #0000ff; fill-opacity: 0.7"/>
    </g>
   </g>
   <g id="PathCollection_62">
    <defs>
     <path id="m920ada86a5" d="M 0 1.841268 
C 0.48831 1.841268 0.956686 1.64726 1.301973 1.301973 
C 1.64726 0.956686 1.841268 0.48831 1.841268 0 
C 1.841268 -0.48831 1.64726 -0.956686 1.301973 -1.301973 
C 0.956686 -1.64726 0.48831 -1.841268 0 -1.841268 
C -0.48831 -1.841268 -0.956686 -1.64726 -1.301973 -1.301973 
C -1.64726 -0.956686 -1.841268 -0.48831 -1.841268 0 
C -1.841268 0.48831 -1.64726 0.956686 -1.301973 1.301973 
C -0.956686 1.64726 -0.48831 1.841268 0 1.841268 
z
"/>
    </defs>
    <g clip-path="url(#p56751616c3)">
     <use xlink:href="#m920ada86a5" x="80.550089" y="135.17667" style="fill: #008000; fill-opacity: 0.7"/>
    </g>
   </g>
   <g id="PathCollection_63">
    <defs>
     <path id="m783f2b9298" d="M 0 1.830267 
C 0.485393 1.830267 0.95097 1.637419 1.294194 1.294194 
C 1.637419 0.95097 1.830267 0.485393 1.830267 0 
C 1.830267 -0.485393 1.637419 -0.95097 1.294194 -1.294194 
C 0.95097 -1.637419 0.485393 -1.830267 0 -1.830267 
C -0.485393 -1.830267 -0.95097 -1.637419 -1.294194 -1.294194 
C -1.637419 -0.95097 -1.830267 -0.485393 -1.830267 0 
C -1.830267 0.485393 -1.637419 0.95097 -1.294194 1.294194 
C -0.95097 1.637419 -0.485393 1.830267 0 1.830267 
z
"/>
    </defs>
    <g clip-path="url(#p56751616c3)">
     <use xlink:href="#m783f2b9298" x="134.545879" y="109.82447" style="fill: #0000ff; fill-opacity: 0.7"/>
    </g>
   </g>
   <g id="PathCollection_64">
    <defs>
     <path id="md20c443f27" d="M 0 1.95902 
C 0.519538 1.95902 1.017868 1.752606 1.385237 1.385237 
C 1.752606 1.017868 1.95902 0.519538 1.95902 0 
C 1.95902 -0.519538 1.752606 -1.017868 1.385237 -1.385237 
C 1.017868 -1.752606 0.519538 -1.95902 0 -1.95902 
C -0.519538 -1.95902 -1.017868 -1.752606 -1.385237 -1.385237 
C -1.752606 -1.017868 -1.95902 -0.519538 -1.95902 0 
C -1.95902 0.519538 -1.752606 1.017868 -1.385237 1.385237 
C -1.017868 1.752606 -0.519538 1.95902 0 1.95902 
z
"/>
    </defs>
    <g clip-path="url(#p56751616c3)">
     <use xlink:href="#md20c443f27" x="156.77944" y="119.189738" style="fill: #008000; fill-opacity: 0.7"/>
    </g>
   </g>
   <g id="PathCollection_65">
    <defs>
     <path id="m566d793aa1" d="M 0 1.813911 
C 0.481055 1.813911 0.942472 1.622786 1.282629 1.282629 
C 1.622786 0.942472 1.813911 0.481055 1.813911 0 
C 1.813911 -0.481055 1.622786 -0.942472 1.282629 -1.282629 
C 0.942472 -1.622786 0.481055 -1.813911 0 -1.813911 
C -0.481055 -1.813911 -0.942472 -1.622786 -1.282629 -1.282629 
C -1.622786 -0.942472 -1.813911 -0.481055 -1.813911 0 
C -1.813911 0.481055 -1.622786 0.942472 -1.282629 1.282629 
C -0.942472 1.622786 -0.481055 1.813911 0 1.813911 
z
"/>
    </defs>
    <g clip-path="url(#p56751616c3)">
     <use xlink:href="#m566d793aa1" x="129.781545" y="116.678443" style="fill: #0000ff; fill-opacity: 0.7"/>
    </g>
   </g>
   <g id="PathCollection_66">
    <defs>
     <path id="mcb853b66ad" d="M 0 1.871905 
C 0.496435 1.871905 0.972604 1.674669 1.323637 1.323637 
C 1.674669 0.972604 1.871905 0.496435 1.871905 0 
C 1.871905 -0.496435 1.674669 -0.972604 1.323637 -1.323637 
C 0.972604 -1.674669 0.496435 -1.871905 0 -1.871905 
C -0.496435 -1.871905 -0.972604 -1.674669 -1.323637 -1.323637 
C -1.674669 -0.972604 -1.871905 -0.496435 -1.871905 0 
C -1.871905 0.496435 -1.674669 0.972604 -1.323637 1.323637 
C -0.972604 1.674669 -0.496435 1.871905 0 1.871905 
z
"/>
    </defs>
    <g clip-path="url(#p56751616c3)">
     <use xlink:href="#mcb853b66ad" x="175.836778" y="116.665995" style="fill: #008000; fill-opacity: 0.7"/>
    </g>
   </g>
   <g id="PathCollection_67">
    <defs>
     <path id="meec1dcfd74" d="M 0 8.71307 
C 2.310733 8.71307 4.527136 7.795006 6.161071 6.161071 
C 7.795006 4.527136 8.71307 2.310733 8.71307 0 
C 8.71307 -2.310733 7.795006 -4.527136 6.161071 -6.161071 
C 4.527136 -7.795006 2.310733 -8.71307 0 -8.71307 
C -2.310733 -8.71307 -4.527136 -7.795006 -6.161071 -6.161071 
C -7.795006 -4.527136 -8.71307 -2.310733 -8.71307 0 
C -8.71307 2.310733 -7.795006 4.527136 -6.161071 6.161071 
C -4.527136 7.795006 -2.310733 8.71307 0 8.71307 
z
"/>
    </defs>
    <g clip-path="url(#p56751616c3)"/>
   </g>
   <g id="PathCollection_68">
    <defs>
     <path id="mbeb70405d3" d="M 0 1.898584 
C 0.50351 1.898584 0.986466 1.698538 1.342502 1.342502 
C 1.698538 0.986466 1.898584 0.50351 1.898584 0 
C 1.898584 -0.50351 1.698538 -0.986466 1.342502 -1.342502 
C 0.986466 -1.698538 0.50351 -1.898584 0 -1.898584 
C -0.50351 -1.898584 -0.986466 -1.698538 -1.342502 -1.342502 
C -1.698538 -0.986466 -1.898584 -0.50351 -1.898584 0 
C -1.898584 0.50351 -1.698538 0.986466 -1.342502 1.342502 
C -0.986466 1.698538 -0.50351 1.898584 0 1.898584 
z
"/>
    </defs>
    <g clip-path="url(#p56751616c3)">
     <use xlink:href="#mbeb70405d3" x="314.002476" y="91.439863" style="fill: #008000; fill-opacity: 0.7"/>
    </g>
   </g>
   <g id="PathCollection_69">
    <defs>
     <path id="m46ff5d4c15" d="M 0 2.018009 
C 0.535182 2.018009 1.048517 1.805379 1.426948 1.426948 
C 1.805379 1.048517 2.018009 0.535182 2.018009 0 
C 2.018009 -0.535182 1.805379 -1.048517 1.426948 -1.426948 
C 1.048517 -1.805379 0.535182 -2.018009 0 -2.018009 
C -0.535182 -2.018009 -1.048517 -1.805379 -1.426948 -1.426948 
C -1.805379 -1.048517 -2.018009 -0.535182 -2.018009 0 
C -2.018009 0.535182 -1.805379 1.048517 -1.426948 1.426948 
C -1.048517 1.805379 -0.535182 2.018009 0 2.018009 
z
"/>
    </defs>
    <g clip-path="url(#p56751616c3)">
     <use xlink:href="#m46ff5d4c15" x="182.189223" y="94.464337" style="fill: #008000; fill-opacity: 0.7"/>
    </g>
   </g>
   <g id="PathCollection_70">
    <defs>
     <path id="m694a183ff8" d="M 0 1.408301 
C 0.373486 1.408301 0.731725 1.259913 0.995819 0.995819 
C 1.259913 0.731725 1.408301 0.373486 1.408301 0 
C 1.408301 -0.373486 1.259913 -0.731725 0.995819 -0.995819 
C 0.731725 -1.259913 0.373486 -1.408301 0 -1.408301 
C -0.373486 -1.408301 -0.731725 -1.259913 -0.995819 -0.995819 
C -1.259913 -0.731725 -1.408301 -0.373486 -1.408301 0 
C -1.408301 0.373486 -1.259913 0.731725 -0.995819 0.995819 
C -0.731725 1.259913 -0.373486 1.408301 0 1.408301 
z
"/>
    </defs>
    <g clip-path="url(#p56751616c3)">
     <use xlink:href="#m694a183ff8" x="102.78365" y="140.228219" style="fill: #ffa500; fill-opacity: 0.7"/>
    </g>
   </g>
   <g id="PathCollection_71">
    <defs>
     <path id="mabb9b640e8" d="M 0 1.507233 
C 0.399723 1.507233 0.783128 1.348421 1.065774 1.065774 
C 1.348421 0.783128 1.507233 0.399723 1.507233 0 
C 1.507233 -0.399723 1.348421 -0.783128 1.065774 -1.065774 
C 0.783128 -1.348421 0.399723 -1.507233 0 -1.507233 
C -0.399723 -1.507233 -0.783128 -1.348421 -1.065774 -1.065774 
C -1.348421 -0.783128 -1.507233 -0.399723 -1.507233 0 
C -1.507233 0.399723 -1.348421 0.783128 -1.065774 1.065774 
C -0.783128 1.348421 -0.399723 1.507233 0 1.507233 
z
"/>
    </defs>
    <g clip-path="url(#p56751616c3)">
     <use xlink:href="#mabb9b640e8" x="185.365446" y="124.886231" style="fill: #008000; fill-opacity: 0.7"/>
    </g>
   </g>
   <g id="PathCollection_72">
    <defs>
     <path id="m96658f9c75" d="M 0 1.467621 
C 0.389218 1.467621 0.762546 1.312983 1.037765 1.037765 
C 1.312983 0.762546 1.467621 0.389218 1.467621 0 
C 1.467621 -0.389218 1.312983 -0.762546 1.037765 -1.037765 
C 0.762546 -1.312983 0.389218 -1.467621 0 -1.467621 
C -0.389218 -1.467621 -0.762546 -1.312983 -1.037765 -1.037765 
C -1.312983 -0.762546 -1.467621 -0.389218 -1.467621 0 
C -1.467621 0.389218 -1.312983 0.762546 -1.037765 1.037765 
C -0.762546 1.312983 -0.389218 1.467621 0 1.467621 
z
"/>
    </defs>
    <g clip-path="url(#p56751616c3)">
     <use xlink:href="#m96658f9c75" x="290.180804" y="130.04805" style="fill: #008000; fill-opacity: 0.7"/>
    </g>
   </g>
   <g id="PathCollection_73">
    <defs>
     <path id="m0d4ec93584" d="M 0 1.70474 
C 0.452102 1.70474 0.885748 1.525118 1.205433 1.205433 
C 1.525118 0.885748 1.70474 0.452102 1.70474 0 
C 1.70474 -0.452102 1.525118 -0.885748 1.205433 -1.205433 
C 0.885748 -1.525118 0.452102 -1.70474 0 -1.70474 
C -0.452102 -1.70474 -0.885748 -1.525118 -1.205433 -1.205433 
C -1.525118 -0.885748 -1.70474 -0.452102 -1.70474 0 
C -1.70474 0.452102 -1.525118 0.885748 -1.205433 1.205433 
C -0.885748 1.525118 -0.452102 1.70474 0 1.70474 
z
"/>
    </defs>
    <g clip-path="url(#p56751616c3)">
     <use xlink:href="#m0d4ec93584" x="136.133991" y="114.332029" style="fill: #ffa500; fill-opacity: 0.7"/>
    </g>
   </g>
   <g id="PathCollection_74">
    <defs>
     <path id="m91eb6094c4" d="M 0 1.559543 
C 0.413596 1.559543 0.810307 1.395219 1.102763 1.102763 
C 1.395219 0.810307 1.559543 0.413596 1.559543 0 
C 1.559543 -0.413596 1.395219 -0.810307 1.102763 -1.102763 
C 0.810307 -1.395219 0.413596 -1.559543 0 -1.559543 
C -0.413596 -1.559543 -0.810307 -1.395219 -1.102763 -1.102763 
C -1.395219 -0.810307 -1.559543 -0.413596 -1.559543 0 
C -1.559543 0.413596 -1.395219 0.810307 -1.102763 1.102763 
C -0.810307 1.395219 -0.413596 1.559543 0 1.559543 
z
"/>
    </defs>
    <g clip-path="url(#p56751616c3)">
     <use xlink:href="#m91eb6094c4" x="267.947243" y="113.533128" style="fill: #008000; fill-opacity: 0.7"/>
    </g>
   </g>
   <g id="PathCollection_75">
    <defs>
     <path id="m71410d8504" d="M 0 3.905006 
C 1.03562 3.905006 2.028962 3.49355 2.761256 2.761256 
C 3.49355 2.028962 3.905006 1.03562 3.905006 0 
C 3.905006 -1.03562 3.49355 -2.028962 2.761256 -2.761256 
C 2.028962 -3.49355 1.03562 -3.905006 0 -3.905006 
C -1.03562 -3.905006 -2.028962 -3.49355 -2.761256 -2.761256 
C -3.49355 -2.028962 -3.905006 -1.03562 -3.905006 0 
C -3.905006 1.03562 -3.49355 2.028962 -2.761256 2.761256 
C -2.028962 3.49355 -1.03562 3.905006 0 3.905006 
z
"/>
    </defs>
    <g clip-path="url(#p56751616c3)">
     <use xlink:href="#m71410d8504" x="404.52483" y="37.205061" style="fill: #ffa500; fill-opacity: 0.7"/>
    </g>
   </g>
   <g id="PathCollection_76">
    <defs>
     <path id="m8da90c0808" d="M 0 1.650561 
C 0.437734 1.650561 0.857598 1.476647 1.167123 1.167123 
C 1.476647 0.857598 1.650561 0.437734 1.650561 0 
C 1.650561 -0.437734 1.476647 -0.857598 1.167123 -1.167123 
C 0.857598 -1.476647 0.437734 -1.650561 0 -1.650561 
C -0.437734 -1.650561 -0.857598 -1.476647 -1.167123 -1.167123 
C -1.476647 -0.857598 -1.650561 -0.437734 -1.650561 0 
C -1.650561 0.437734 -1.476647 0.857598 -1.167123 1.167123 
C -0.857598 1.476647 -0.437734 1.650561 0 1.650561 
z
"/>
    </defs>
    <g clip-path="url(#p56751616c3)">
     <use xlink:href="#m8da90c0808" x="226.656345" y="118.357358" style="fill: #008000; fill-opacity: 0.7"/>
    </g>
   </g>
   <g id="PathCollection_77">
    <defs>
     <path id="m3bfc55b54c" d="M 0 1.647728 
C 0.436983 1.647728 0.856126 1.474113 1.165119 1.165119 
C 1.474113 0.856126 1.647728 0.436983 1.647728 0 
C 1.647728 -0.436983 1.474113 -0.856126 1.165119 -1.165119 
C 0.856126 -1.474113 0.436983 -1.647728 0 -1.647728 
C -0.436983 -1.647728 -0.856126 -1.474113 -1.165119 -1.165119 
C -1.474113 -0.856126 -1.647728 -0.436983 -1.647728 0 
C -1.647728 0.436983 -1.474113 0.856126 -1.165119 1.165119 
C -0.856126 1.474113 -0.436983 1.647728 0 1.647728 
z
"/>
    </defs>
    <g clip-path="url(#p56751616c3)">
     <use xlink:href="#m3bfc55b54c" x="152.015106" y="126.764042" style="fill: #ffa500; fill-opacity: 0.7"/>
    </g>
   </g>
   <g id="PathCollection_78">
    <defs>
     <path id="m67b17aff44" d="M 0 1.720611 
C 0.456311 1.720611 0.893995 1.539316 1.216656 1.216656 
C 1.539316 0.893995 1.720611 0.456311 1.720611 0 
C 1.720611 -0.456311 1.539316 -0.893995 1.216656 -1.216656 
C 0.893995 -1.539316 0.456311 -1.720611 0 -1.720611 
C -0.456311 -1.720611 -0.893995 -1.539316 -1.216656 -1.216656 
C -1.539316 -0.893995 -1.720611 -0.456311 -1.720611 0 
C -1.720611 0.456311 -1.539316 0.893995 -1.216656 1.216656 
C -0.893995 1.539316 -0.456311 1.720611 0 1.720611 
z
"/>
    </defs>
    <g clip-path="url(#p56751616c3)">
     <use xlink:href="#m67b17aff44" x="171.072443" y="123.631184" style="fill: #008000; fill-opacity: 0.7"/>
    </g>
   </g>
   <g id="PathCollection_79">
    <defs>
     <path id="m202435ffa6" d="M 0 2.836952 
C 0.752368 2.836952 1.474023 2.538033 2.006028 2.006028 
C 2.538033 1.474023 2.836952 0.752368 2.836952 0 
C 2.836952 -0.752368 2.538033 -1.474023 2.006028 -2.006028 
C 1.474023 -2.538033 0.752368 -2.836952 0 -2.836952 
C -0.752368 -2.836952 -1.474023 -2.538033 -2.006028 -2.006028 
C -2.538033 -1.474023 -2.836952 -0.752368 -2.836952 0 
C -2.836952 0.752368 -2.538033 1.474023 -2.006028 2.006028 
C -1.474023 2.538033 -0.752368 2.836952 0 2.836952 
z
"/>
    </defs>
    <g clip-path="url(#p56751616c3)">
     <use xlink:href="#m202435ffa6" x="290.180804" y="80.691683" style="fill: #ffa500; fill-opacity: 0.7"/>
    </g>
   </g>
   <g id="PathCollection_80">
    <defs>
     <path id="m142f5679d9" d="M 0 1.446723 
C 0.383675 1.446723 0.751688 1.294287 1.022988 1.022988 
C 1.294287 0.751688 1.446723 0.383675 1.446723 0 
C 1.446723 -0.383675 1.294287 -0.751688 1.022988 -1.022988 
C 0.751688 -1.294287 0.383675 -1.446723 0 -1.446723 
C -0.383675 -1.446723 -0.751688 -1.294287 -1.022988 -1.022988 
C -1.294287 -0.751688 -1.446723 -0.383675 -1.446723 0 
C -1.446723 0.383675 -1.294287 0.751688 -1.022988 1.022988 
C -0.751688 1.294287 -0.383675 1.446723 0 1.446723 
z
"/>
    </defs>
    <g clip-path="url(#p56751616c3)">
     <use xlink:href="#m142f5679d9" x="163.131886" y="134.683669" style="fill: #008000; fill-opacity: 0.7"/>
    </g>
   </g>
   <g id="PathCollection_81">
    <defs>
     <path id="m0659d486cf" d="M 0 1.58557 
C 0.420498 1.58557 0.82383 1.418504 1.121167 1.121167 
C 1.418504 0.82383 1.58557 0.420498 1.58557 0 
C 1.58557 -0.420498 1.418504 -0.82383 1.121167 -1.121167 
C 0.82383 -1.418504 0.420498 -1.58557 0 -1.58557 
C -0.420498 -1.58557 -0.82383 -1.418504 -1.121167 -1.121167 
C -1.418504 -0.82383 -1.58557 -0.420498 -1.58557 0 
C -1.58557 0.420498 -1.418504 0.82383 -1.121167 1.121167 
C -0.82383 1.418504 -0.420498 1.58557 0 1.58557 
z
"/>
    </defs>
    <g clip-path="url(#p56751616c3)">
     <use xlink:href="#m0659d486cf" x="164.719997" y="127.108288" style="fill: #ffa500; fill-opacity: 0.7"/>
    </g>
   </g>
   <g id="PathCollection_82">
    <defs>
     <path id="m1f4bcec83c" d="M 0 1.839005 
C 0.48771 1.839005 0.95551 1.645236 1.300373 1.300373 
C 1.645236 0.95551 1.839005 0.48771 1.839005 0 
C 1.839005 -0.48771 1.645236 -0.95551 1.300373 -1.300373 
C 0.95551 -1.645236 0.48771 -1.839005 0 -1.839005 
C -0.48771 -1.839005 -0.95551 -1.645236 -1.300373 -1.300373 
C -1.645236 -0.95551 -1.839005 -0.48771 -1.839005 0 
C -1.839005 0.48771 -1.645236 0.95551 -1.300373 1.300373 
C -0.95551 1.645236 -0.48771 1.839005 0 1.839005 
z
"/>
    </defs>
    <g clip-path="url(#p56751616c3)">
     <use xlink:href="#m1f4bcec83c" x="107.547984" y="122.509154" style="fill: #008000; fill-opacity: 0.7"/>
    </g>
   </g>
   <g id="PathCollection_83">
    <defs>
     <path id="md6f6d47b9c" d="M 0 3.416545 
C 0.906078 3.416545 1.775168 3.056556 2.415862 2.415862 
C 3.056556 1.775168 3.416545 0.906078 3.416545 0 
C 3.416545 -0.906078 3.056556 -1.775168 2.415862 -2.415862 
C 1.775168 -3.056556 0.906078 -3.416545 0 -3.416545 
C -0.906078 -3.416545 -1.775168 -3.056556 -2.415862 -2.415862 
C -3.056556 -1.775168 -3.416545 -0.906078 -3.416545 0 
C -3.416545 0.906078 -3.056556 1.775168 -2.415862 2.415862 
C -1.775168 3.056556 -0.906078 3.416545 0 3.416545 
z
"/>
    </defs>
    <g clip-path="url(#p56751616c3)">
     <use xlink:href="#md6f6d47b9c" x="382.291269" y="57.672377" style="fill: #ffa500; fill-opacity: 0.7"/>
    </g>
   </g>
   <g id="PathCollection_84">
    <defs>
     <path id="m45351c17b4" d="M 0 1.854712 
C 0.491875 1.854712 0.963671 1.659288 1.31148 1.31148 
C 1.659288 0.963671 1.854712 0.491875 1.854712 0 
C 1.854712 -0.491875 1.659288 -0.963671 1.31148 -1.31148 
C 0.963671 -1.659288 0.491875 -1.854712 0 -1.854712 
C -0.491875 -1.854712 -0.963671 -1.659288 -1.31148 -1.31148 
C -1.659288 -0.963671 -1.854712 -0.491875 -1.854712 0 
C -1.854712 0.491875 -1.659288 0.963671 -1.31148 1.31148 
C -0.963671 1.659288 -0.491875 1.854712 0 1.854712 
z
"/>
    </defs>
    <g clip-path="url(#p56751616c3)">
     <use xlink:href="#m45351c17b4" x="174.248666" y="117.188656" style="fill: #008000; fill-opacity: 0.7"/>
    </g>
   </g>
   <g id="PathCollection_85"/>
   <g id="PathCollection_86"/>
   <g id="PathCollection_87"/>
   <g id="matplotlib.axis_1">
    <g id="xtick_1">
     <g id="line2d_1">
      <defs>
       <path id="ma60494d2f1" d="M 0 0 
L 0 3.5 
" style="stroke: #000000; stroke-width: 0.8"/>
      </defs>
      <g>
       <use xlink:href="#ma60494d2f1" x="78.961978" y="174.04" style="stroke: #000000; stroke-width: 0.8"/>
      </g>
     </g>
     <g id="text_1">
      <!-- 100 -->
      <g transform="translate(69.418228 188.638438) scale(0.1 -0.1)">
       <defs>
        <path id="DejaVuSans-31" d="M 794 531 
L 1825 531 
L 1825 4091 
L 703 3866 
L 703 4441 
L 1819 4666 
L 2450 4666 
L 2450 531 
L 3481 531 
L 3481 0 
L 794 0 
L 794 531 
z
" transform="scale(0.015625)"/>
        <path id="DejaVuSans-30" d="M 2034 4250 
Q 1547 4250 1301 3770 
Q 1056 3291 1056 2328 
Q 1056 1369 1301 889 
Q 1547 409 2034 409 
Q 2525 409 2770 889 
Q 3016 1369 3016 2328 
Q 3016 3291 2770 3770 
Q 2525 4250 2034 4250 
z
M 2034 4750 
Q 2819 4750 3233 4129 
Q 3647 3509 3647 2328 
Q 3647 1150 3233 529 
Q 2819 -91 2034 -91 
Q 1250 -91 836 529 
Q 422 1150 422 2328 
Q 422 3509 836 4129 
Q 1250 4750 2034 4750 
z
" transform="scale(0.015625)"/>
       </defs>
       <use xlink:href="#DejaVuSans-31"/>
       <use xlink:href="#DejaVuSans-30" x="63.623047"/>
       <use xlink:href="#DejaVuSans-30" x="127.246094"/>
      </g>
     </g>
    </g>
    <g id="xtick_2">
     <g id="line2d_2">
      <g>
       <use xlink:href="#ma60494d2f1" x="158.367551" y="174.04" style="stroke: #000000; stroke-width: 0.8"/>
      </g>
     </g>
     <g id="text_2">
      <!-- 150 -->
      <g transform="translate(148.823801 188.638438) scale(0.1 -0.1)">
       <defs>
        <path id="DejaVuSans-35" d="M 691 4666 
L 3169 4666 
L 3169 4134 
L 1269 4134 
L 1269 2991 
Q 1406 3038 1543 3061 
Q 1681 3084 1819 3084 
Q 2600 3084 3056 2656 
Q 3513 2228 3513 1497 
Q 3513 744 3044 326 
Q 2575 -91 1722 -91 
Q 1428 -91 1123 -41 
Q 819 9 494 109 
L 494 744 
Q 775 591 1075 516 
Q 1375 441 1709 441 
Q 2250 441 2565 725 
Q 2881 1009 2881 1497 
Q 2881 1984 2565 2268 
Q 2250 2553 1709 2553 
Q 1456 2553 1204 2497 
Q 953 2441 691 2322 
L 691 4666 
z
" transform="scale(0.015625)"/>
       </defs>
       <use xlink:href="#DejaVuSans-31"/>
       <use xlink:href="#DejaVuSans-35" x="63.623047"/>
       <use xlink:href="#DejaVuSans-30" x="127.246094"/>
      </g>
     </g>
    </g>
    <g id="xtick_3">
     <g id="line2d_3">
      <g>
       <use xlink:href="#ma60494d2f1" x="237.773125" y="174.04" style="stroke: #000000; stroke-width: 0.8"/>
      </g>
     </g>
     <g id="text_3">
      <!-- 200 -->
      <g transform="translate(228.229375 188.638438) scale(0.1 -0.1)">
       <defs>
        <path id="DejaVuSans-32" d="M 1228 531 
L 3431 531 
L 3431 0 
L 469 0 
L 469 531 
Q 828 903 1448 1529 
Q 2069 2156 2228 2338 
Q 2531 2678 2651 2914 
Q 2772 3150 2772 3378 
Q 2772 3750 2511 3984 
Q 2250 4219 1831 4219 
Q 1534 4219 1204 4116 
Q 875 4013 500 3803 
L 500 4441 
Q 881 4594 1212 4672 
Q 1544 4750 1819 4750 
Q 2544 4750 2975 4387 
Q 3406 4025 3406 3419 
Q 3406 3131 3298 2873 
Q 3191 2616 2906 2266 
Q 2828 2175 2409 1742 
Q 1991 1309 1228 531 
z
" transform="scale(0.015625)"/>
       </defs>
       <use xlink:href="#DejaVuSans-32"/>
       <use xlink:href="#DejaVuSans-30" x="63.623047"/>
       <use xlink:href="#DejaVuSans-30" x="127.246094"/>
      </g>
     </g>
    </g>
    <g id="xtick_4">
     <g id="line2d_4">
      <g>
       <use xlink:href="#ma60494d2f1" x="317.178699" y="174.04" style="stroke: #000000; stroke-width: 0.8"/>
      </g>
     </g>
     <g id="text_4">
      <!-- 250 -->
      <g transform="translate(307.634949 188.638438) scale(0.1 -0.1)">
       <use xlink:href="#DejaVuSans-32"/>
       <use xlink:href="#DejaVuSans-35" x="63.623047"/>
       <use xlink:href="#DejaVuSans-30" x="127.246094"/>
      </g>
     </g>
    </g>
    <g id="xtick_5">
     <g id="line2d_5">
      <g>
       <use xlink:href="#ma60494d2f1" x="396.584272" y="174.04" style="stroke: #000000; stroke-width: 0.8"/>
      </g>
     </g>
     <g id="text_5">
      <!-- 300 -->
      <g transform="translate(387.040522 188.638438) scale(0.1 -0.1)">
       <defs>
        <path id="DejaVuSans-33" d="M 2597 2516 
Q 3050 2419 3304 2112 
Q 3559 1806 3559 1356 
Q 3559 666 3084 287 
Q 2609 -91 1734 -91 
Q 1441 -91 1130 -33 
Q 819 25 488 141 
L 488 750 
Q 750 597 1062 519 
Q 1375 441 1716 441 
Q 2309 441 2620 675 
Q 2931 909 2931 1356 
Q 2931 1769 2642 2001 
Q 2353 2234 1838 2234 
L 1294 2234 
L 1294 2753 
L 1863 2753 
Q 2328 2753 2575 2939 
Q 2822 3125 2822 3475 
Q 2822 3834 2567 4026 
Q 2313 4219 1838 4219 
Q 1578 4219 1281 4162 
Q 984 4106 628 3988 
L 628 4550 
Q 988 4650 1302 4700 
Q 1616 4750 1894 4750 
Q 2613 4750 3031 4423 
Q 3450 4097 3450 3541 
Q 3450 3153 3228 2886 
Q 3006 2619 2597 2516 
z
" transform="scale(0.015625)"/>
       </defs>
       <use xlink:href="#DejaVuSans-33"/>
       <use xlink:href="#DejaVuSans-30" x="63.623047"/>
       <use xlink:href="#DejaVuSans-30" x="127.246094"/>
      </g>
     </g>
    </g>
    <g id="text_6">
     <!-- FOD Loop Iterations -->
     <g transform="translate(188.128594 202.316563) scale(0.1 -0.1)">
      <defs>
       <path id="DejaVuSans-46" d="M 628 4666 
L 3309 4666 
L 3309 4134 
L 1259 4134 
L 1259 2759 
L 3109 2759 
L 3109 2228 
L 1259 2228 
L 1259 0 
L 628 0 
L 628 4666 
z
" transform="scale(0.015625)"/>
       <path id="DejaVuSans-4f" d="M 2522 4238 
Q 1834 4238 1429 3725 
Q 1025 3213 1025 2328 
Q 1025 1447 1429 934 
Q 1834 422 2522 422 
Q 3209 422 3611 934 
Q 4013 1447 4013 2328 
Q 4013 3213 3611 3725 
Q 3209 4238 2522 4238 
z
M 2522 4750 
Q 3503 4750 4090 4092 
Q 4678 3434 4678 2328 
Q 4678 1225 4090 567 
Q 3503 -91 2522 -91 
Q 1538 -91 948 565 
Q 359 1222 359 2328 
Q 359 3434 948 4092 
Q 1538 4750 2522 4750 
z
" transform="scale(0.015625)"/>
       <path id="DejaVuSans-44" d="M 1259 4147 
L 1259 519 
L 2022 519 
Q 2988 519 3436 956 
Q 3884 1394 3884 2338 
Q 3884 3275 3436 3711 
Q 2988 4147 2022 4147 
L 1259 4147 
z
M 628 4666 
L 1925 4666 
Q 3281 4666 3915 4102 
Q 4550 3538 4550 2338 
Q 4550 1131 3912 565 
Q 3275 0 1925 0 
L 628 0 
L 628 4666 
z
" transform="scale(0.015625)"/>
       <path id="DejaVuSans-20" transform="scale(0.015625)"/>
       <path id="DejaVuSans-4c" d="M 628 4666 
L 1259 4666 
L 1259 531 
L 3531 531 
L 3531 0 
L 628 0 
L 628 4666 
z
" transform="scale(0.015625)"/>
       <path id="DejaVuSans-6f" d="M 1959 3097 
Q 1497 3097 1228 2736 
Q 959 2375 959 1747 
Q 959 1119 1226 758 
Q 1494 397 1959 397 
Q 2419 397 2687 759 
Q 2956 1122 2956 1747 
Q 2956 2369 2687 2733 
Q 2419 3097 1959 3097 
z
M 1959 3584 
Q 2709 3584 3137 3096 
Q 3566 2609 3566 1747 
Q 3566 888 3137 398 
Q 2709 -91 1959 -91 
Q 1206 -91 779 398 
Q 353 888 353 1747 
Q 353 2609 779 3096 
Q 1206 3584 1959 3584 
z
" transform="scale(0.015625)"/>
       <path id="DejaVuSans-70" d="M 1159 525 
L 1159 -1331 
L 581 -1331 
L 581 3500 
L 1159 3500 
L 1159 2969 
Q 1341 3281 1617 3432 
Q 1894 3584 2278 3584 
Q 2916 3584 3314 3078 
Q 3713 2572 3713 1747 
Q 3713 922 3314 415 
Q 2916 -91 2278 -91 
Q 1894 -91 1617 61 
Q 1341 213 1159 525 
z
M 3116 1747 
Q 3116 2381 2855 2742 
Q 2594 3103 2138 3103 
Q 1681 3103 1420 2742 
Q 1159 2381 1159 1747 
Q 1159 1113 1420 752 
Q 1681 391 2138 391 
Q 2594 391 2855 752 
Q 3116 1113 3116 1747 
z
" transform="scale(0.015625)"/>
       <path id="DejaVuSans-49" d="M 628 4666 
L 1259 4666 
L 1259 0 
L 628 0 
L 628 4666 
z
" transform="scale(0.015625)"/>
       <path id="DejaVuSans-74" d="M 1172 4494 
L 1172 3500 
L 2356 3500 
L 2356 3053 
L 1172 3053 
L 1172 1153 
Q 1172 725 1289 603 
Q 1406 481 1766 481 
L 2356 481 
L 2356 0 
L 1766 0 
Q 1100 0 847 248 
Q 594 497 594 1153 
L 594 3053 
L 172 3053 
L 172 3500 
L 594 3500 
L 594 4494 
L 1172 4494 
z
" transform="scale(0.015625)"/>
       <path id="DejaVuSans-65" d="M 3597 1894 
L 3597 1613 
L 953 1613 
Q 991 1019 1311 708 
Q 1631 397 2203 397 
Q 2534 397 2845 478 
Q 3156 559 3463 722 
L 3463 178 
Q 3153 47 2828 -22 
Q 2503 -91 2169 -91 
Q 1331 -91 842 396 
Q 353 884 353 1716 
Q 353 2575 817 3079 
Q 1281 3584 2069 3584 
Q 2775 3584 3186 3129 
Q 3597 2675 3597 1894 
z
M 3022 2063 
Q 3016 2534 2758 2815 
Q 2500 3097 2075 3097 
Q 1594 3097 1305 2825 
Q 1016 2553 972 2059 
L 3022 2063 
z
" transform="scale(0.015625)"/>
       <path id="DejaVuSans-72" d="M 2631 2963 
Q 2534 3019 2420 3045 
Q 2306 3072 2169 3072 
Q 1681 3072 1420 2755 
Q 1159 2438 1159 1844 
L 1159 0 
L 581 0 
L 581 3500 
L 1159 3500 
L 1159 2956 
Q 1341 3275 1631 3429 
Q 1922 3584 2338 3584 
Q 2397 3584 2469 3576 
Q 2541 3569 2628 3553 
L 2631 2963 
z
" transform="scale(0.015625)"/>
       <path id="DejaVuSans-61" d="M 2194 1759 
Q 1497 1759 1228 1600 
Q 959 1441 959 1056 
Q 959 750 1161 570 
Q 1363 391 1709 391 
Q 2188 391 2477 730 
Q 2766 1069 2766 1631 
L 2766 1759 
L 2194 1759 
z
M 3341 1997 
L 3341 0 
L 2766 0 
L 2766 531 
Q 2569 213 2275 61 
Q 1981 -91 1556 -91 
Q 1019 -91 701 211 
Q 384 513 384 1019 
Q 384 1609 779 1909 
Q 1175 2209 1959 2209 
L 2766 2209 
L 2766 2266 
Q 2766 2663 2505 2880 
Q 2244 3097 1772 3097 
Q 1472 3097 1187 3025 
Q 903 2953 641 2809 
L 641 3341 
Q 956 3463 1253 3523 
Q 1550 3584 1831 3584 
Q 2591 3584 2966 3190 
Q 3341 2797 3341 1997 
z
" transform="scale(0.015625)"/>
       <path id="DejaVuSans-69" d="M 603 3500 
L 1178 3500 
L 1178 0 
L 603 0 
L 603 3500 
z
M 603 4863 
L 1178 4863 
L 1178 4134 
L 603 4134 
L 603 4863 
z
" transform="scale(0.015625)"/>
       <path id="DejaVuSans-6e" d="M 3513 2113 
L 3513 0 
L 2938 0 
L 2938 2094 
Q 2938 2591 2744 2837 
Q 2550 3084 2163 3084 
Q 1697 3084 1428 2787 
Q 1159 2491 1159 1978 
L 1159 0 
L 581 0 
L 581 3500 
L 1159 3500 
L 1159 2956 
Q 1366 3272 1645 3428 
Q 1925 3584 2291 3584 
Q 2894 3584 3203 3211 
Q 3513 2838 3513 2113 
z
" transform="scale(0.015625)"/>
       <path id="DejaVuSans-73" d="M 2834 3397 
L 2834 2853 
Q 2591 2978 2328 3040 
Q 2066 3103 1784 3103 
Q 1356 3103 1142 2972 
Q 928 2841 928 2578 
Q 928 2378 1081 2264 
Q 1234 2150 1697 2047 
L 1894 2003 
Q 2506 1872 2764 1633 
Q 3022 1394 3022 966 
Q 3022 478 2636 193 
Q 2250 -91 1575 -91 
Q 1294 -91 989 -36 
Q 684 19 347 128 
L 347 722 
Q 666 556 975 473 
Q 1284 391 1588 391 
Q 1994 391 2212 530 
Q 2431 669 2431 922 
Q 2431 1156 2273 1281 
Q 2116 1406 1581 1522 
L 1381 1569 
Q 847 1681 609 1914 
Q 372 2147 372 2553 
Q 372 3047 722 3315 
Q 1072 3584 1716 3584 
Q 2034 3584 2315 3537 
Q 2597 3491 2834 3397 
z
" transform="scale(0.015625)"/>
      </defs>
      <use xlink:href="#DejaVuSans-46"/>
      <use xlink:href="#DejaVuSans-4f" x="57.519531"/>
      <use xlink:href="#DejaVuSans-44" x="136.230469"/>
      <use xlink:href="#DejaVuSans-20" x="213.232422"/>
      <use xlink:href="#DejaVuSans-4c" x="245.019531"/>
      <use xlink:href="#DejaVuSans-6f" x="298.982422"/>
      <use xlink:href="#DejaVuSans-6f" x="360.164062"/>
      <use xlink:href="#DejaVuSans-70" x="421.345703"/>
      <use xlink:href="#DejaVuSans-20" x="484.822266"/>
      <use xlink:href="#DejaVuSans-49" x="516.609375"/>
      <use xlink:href="#DejaVuSans-74" x="546.101562"/>
      <use xlink:href="#DejaVuSans-65" x="585.310547"/>
      <use xlink:href="#DejaVuSans-72" x="646.833984"/>
      <use xlink:href="#DejaVuSans-61" x="687.947266"/>
      <use xlink:href="#DejaVuSans-74" x="749.226562"/>
      <use xlink:href="#DejaVuSans-69" x="788.435547"/>
      <use xlink:href="#DejaVuSans-6f" x="816.21875"/>
      <use xlink:href="#DejaVuSans-6e" x="877.400391"/>
      <use xlink:href="#DejaVuSans-73" x="940.779297"/>
     </g>
    </g>
   </g>
   <g id="matplotlib.axis_2">
    <g id="ytick_1">
     <g id="line2d_6">
      <defs>
       <path id="m8ae51858ae" d="M 0 0 
L -3.5 0 
" style="stroke: #000000; stroke-width: 0.8"/>
      </defs>
      <g>
       <use xlink:href="#m8ae51858ae" x="54.34625" y="159.24488" style="stroke: #000000; stroke-width: 0.8"/>
      </g>
     </g>
     <g id="text_7">
      <!-- 0.10 -->
      <g transform="translate(25.080625 163.044099) scale(0.1 -0.1)">
       <defs>
        <path id="DejaVuSans-2e" d="M 684 794 
L 1344 794 
L 1344 0 
L 684 0 
L 684 794 
z
" transform="scale(0.015625)"/>
       </defs>
       <use xlink:href="#DejaVuSans-30"/>
       <use xlink:href="#DejaVuSans-2e" x="63.623047"/>
       <use xlink:href="#DejaVuSans-31" x="95.410156"/>
       <use xlink:href="#DejaVuSans-30" x="159.033203"/>
      </g>
     </g>
    </g>
    <g id="ytick_2">
     <g id="line2d_7">
      <g>
       <use xlink:href="#m8ae51858ae" x="54.34625" y="123.375227" style="stroke: #000000; stroke-width: 0.8"/>
      </g>
     </g>
     <g id="text_8">
      <!-- 0.15 -->
      <g transform="translate(25.080625 127.174446) scale(0.1 -0.1)">
       <use xlink:href="#DejaVuSans-30"/>
       <use xlink:href="#DejaVuSans-2e" x="63.623047"/>
       <use xlink:href="#DejaVuSans-31" x="95.410156"/>
       <use xlink:href="#DejaVuSans-35" x="159.033203"/>
      </g>
     </g>
    </g>
    <g id="ytick_3">
     <g id="line2d_8">
      <g>
       <use xlink:href="#m8ae51858ae" x="54.34625" y="87.505574" style="stroke: #000000; stroke-width: 0.8"/>
      </g>
     </g>
     <g id="text_9">
      <!-- 0.20 -->
      <g transform="translate(25.080625 91.304793) scale(0.1 -0.1)">
       <use xlink:href="#DejaVuSans-30"/>
       <use xlink:href="#DejaVuSans-2e" x="63.623047"/>
       <use xlink:href="#DejaVuSans-32" x="95.410156"/>
       <use xlink:href="#DejaVuSans-30" x="159.033203"/>
      </g>
     </g>
    </g>
    <g id="ytick_4">
     <g id="line2d_9">
      <g>
       <use xlink:href="#m8ae51858ae" x="54.34625" y="51.635921" style="stroke: #000000; stroke-width: 0.8"/>
      </g>
     </g>
     <g id="text_10">
      <!-- 0.25 -->
      <g transform="translate(25.080625 55.43514) scale(0.1 -0.1)">
       <use xlink:href="#DejaVuSans-30"/>
       <use xlink:href="#DejaVuSans-2e" x="63.623047"/>
       <use xlink:href="#DejaVuSans-32" x="95.410156"/>
       <use xlink:href="#DejaVuSans-35" x="159.033203"/>
      </g>
     </g>
    </g>
    <g id="ytick_5">
     <g id="line2d_10">
      <g>
       <use xlink:href="#m8ae51858ae" x="54.34625" y="15.766268" style="stroke: #000000; stroke-width: 0.8"/>
      </g>
     </g>
     <g id="text_11">
      <!-- 0.30 -->
      <g transform="translate(25.080625 19.565487) scale(0.1 -0.1)">
       <use xlink:href="#DejaVuSans-30"/>
       <use xlink:href="#DejaVuSans-2e" x="63.623047"/>
       <use xlink:href="#DejaVuSans-33" x="95.410156"/>
       <use xlink:href="#DejaVuSans-30" x="159.033203"/>
      </g>
     </g>
    </g>
    <g id="text_12">
     <!-- RMSD () -->
     <g transform="translate(19.000938 116.143438) rotate(-90) scale(0.1 -0.1)">
      <defs>
       <path id="DejaVuSans-52" d="M 2841 2188 
Q 3044 2119 3236 1894 
Q 3428 1669 3622 1275 
L 4263 0 
L 3584 0 
L 2988 1197 
Q 2756 1666 2539 1819 
Q 2322 1972 1947 1972 
L 1259 1972 
L 1259 0 
L 628 0 
L 628 4666 
L 2053 4666 
Q 2853 4666 3247 4331 
Q 3641 3997 3641 3322 
Q 3641 2881 3436 2590 
Q 3231 2300 2841 2188 
z
M 1259 4147 
L 1259 2491 
L 2053 2491 
Q 2509 2491 2742 2702 
Q 2975 2913 2975 3322 
Q 2975 3731 2742 3939 
Q 2509 4147 2053 4147 
L 1259 4147 
z
" transform="scale(0.015625)"/>
       <path id="DejaVuSans-4d" d="M 628 4666 
L 1569 4666 
L 2759 1491 
L 3956 4666 
L 4897 4666 
L 4897 0 
L 4281 0 
L 4281 4097 
L 3078 897 
L 2444 897 
L 1241 4097 
L 1241 0 
L 628 0 
L 628 4666 
z
" transform="scale(0.015625)"/>
       <path id="DejaVuSans-53" d="M 3425 4513 
L 3425 3897 
Q 3066 4069 2747 4153 
Q 2428 4238 2131 4238 
Q 1616 4238 1336 4038 
Q 1056 3838 1056 3469 
Q 1056 3159 1242 3001 
Q 1428 2844 1947 2747 
L 2328 2669 
Q 3034 2534 3370 2195 
Q 3706 1856 3706 1288 
Q 3706 609 3251 259 
Q 2797 -91 1919 -91 
Q 1588 -91 1214 -16 
Q 841 59 441 206 
L 441 856 
Q 825 641 1194 531 
Q 1563 422 1919 422 
Q 2459 422 2753 634 
Q 3047 847 3047 1241 
Q 3047 1584 2836 1778 
Q 2625 1972 2144 2069 
L 1759 2144 
Q 1053 2284 737 2584 
Q 422 2884 422 3419 
Q 422 4038 858 4394 
Q 1294 4750 2059 4750 
Q 2388 4750 2728 4690 
Q 3069 4631 3425 4513 
z
" transform="scale(0.015625)"/>
       <path id="DejaVuSans-28" d="M 1984 4856 
Q 1566 4138 1362 3434 
Q 1159 2731 1159 2009 
Q 1159 1288 1364 580 
Q 1569 -128 1984 -844 
L 1484 -844 
Q 1016 -109 783 600 
Q 550 1309 550 2009 
Q 550 2706 781 3412 
Q 1013 4119 1484 4856 
L 1984 4856 
z
" transform="scale(0.015625)"/>
       <path id="DejaVuSans-c5" d="M 2663 5081 
Q 2663 5278 2523 5417 
Q 2384 5556 2188 5556 
Q 1988 5556 1852 5420 
Q 1716 5284 1716 5081 
Q 1716 4884 1853 4746 
Q 1991 4609 2188 4609 
Q 2384 4609 2523 4746 
Q 2663 4884 2663 5081 
z
M 2188 4044 
L 1338 1722 
L 3041 1722 
L 2188 4044 
z
M 1716 4366 
Q 1525 4494 1428 4673 
Q 1331 4853 1331 5081 
Q 1331 5441 1579 5691 
Q 1828 5941 2188 5941 
Q 2544 5941 2795 5689 
Q 3047 5438 3047 5081 
Q 3047 4863 2948 4678 
Q 2850 4494 2663 4366 
L 4325 0 
L 3669 0 
L 3244 1197 
L 1141 1197 
L 716 0 
L 50 0 
L 1716 4366 
z
" transform="scale(0.015625)"/>
       <path id="DejaVuSans-29" d="M 513 4856 
L 1013 4856 
Q 1481 4119 1714 3412 
Q 1947 2706 1947 2009 
Q 1947 1309 1714 600 
Q 1481 -109 1013 -844 
L 513 -844 
Q 928 -128 1133 580 
Q 1338 1288 1338 2009 
Q 1338 2731 1133 3434 
Q 928 4138 513 4856 
z
" transform="scale(0.015625)"/>
      </defs>
      <use xlink:href="#DejaVuSans-52"/>
      <use xlink:href="#DejaVuSans-4d" x="69.482422"/>
      <use xlink:href="#DejaVuSans-53" x="155.761719"/>
      <use xlink:href="#DejaVuSans-44" x="219.238281"/>
      <use xlink:href="#DejaVuSans-20" x="296.240234"/>
      <use xlink:href="#DejaVuSans-28" x="328.027344"/>
      <use xlink:href="#DejaVuSans-c5" x="367.041016"/>
      <use xlink:href="#DejaVuSans-29" x="435.449219"/>
     </g>
    </g>
   </g>
   <g id="patch_3">
    <path d="M 54.34625 174.04 
L 54.34625 10.8 
" style="fill: none; stroke: #000000; stroke-width: 0.8; stroke-linejoin: miter; stroke-linecap: square"/>
   </g>
   <g id="patch_4">
    <path d="M 421.2 174.04 
L 421.2 10.8 
" style="fill: none; stroke: #000000; stroke-width: 0.8; stroke-linejoin: miter; stroke-linecap: square"/>
   </g>
   <g id="patch_5">
    <path d="M 54.34625 174.04 
L 421.2 174.04 
" style="fill: none; stroke: #000000; stroke-width: 0.8; stroke-linejoin: miter; stroke-linecap: square"/>
   </g>
   <g id="patch_6">
    <path d="M 54.34625 10.8 
L 421.2 10.8 
" style="fill: none; stroke: #000000; stroke-width: 0.8; stroke-linejoin: miter; stroke-linecap: square"/>
   </g>
   <g id="legend_1">
    <g id="patch_7">
     <path d="M 58.54625 50.8275 
L 114.920937 50.8275 
Q 116.120937 50.8275 116.120937 49.6275 
L 116.120937 15 
Q 116.120937 13.8 114.920937 13.8 
L 58.54625 13.8 
Q 57.34625 13.8 57.34625 15 
L 57.34625 49.6275 
Q 57.34625 50.8275 58.54625 50.8275 
z
" style="fill: #ffffff; opacity: 0.8; stroke: #cccccc; stroke-linejoin: miter"/>
    </g>
    <g id="patch_8">
     <path d="M 59.74625 20.759062 
L 71.74625 20.759062 
L 71.74625 16.559062 
L 59.74625 16.559062 
z
" style="fill: #ff0000; stroke: #ff0000; stroke-linejoin: miter"/>
    </g>
    <g id="text_13">
     <!-- 34 electrons -->
     <g transform="translate(76.54625 20.759062) scale(0.06 -0.06)">
      <defs>
       <path id="DejaVuSans-34" d="M 2419 4116 
L 825 1625 
L 2419 1625 
L 2419 4116 
z
M 2253 4666 
L 3047 4666 
L 3047 1625 
L 3713 1625 
L 3713 1100 
L 3047 1100 
L 3047 0 
L 2419 0 
L 2419 1100 
L 313 1100 
L 313 1709 
L 2253 4666 
z
" transform="scale(0.015625)"/>
       <path id="DejaVuSans-6c" d="M 603 4863 
L 1178 4863 
L 1178 0 
L 603 0 
L 603 4863 
z
" transform="scale(0.015625)"/>
       <path id="DejaVuSans-63" d="M 3122 3366 
L 3122 2828 
Q 2878 2963 2633 3030 
Q 2388 3097 2138 3097 
Q 1578 3097 1268 2742 
Q 959 2388 959 1747 
Q 959 1106 1268 751 
Q 1578 397 2138 397 
Q 2388 397 2633 464 
Q 2878 531 3122 666 
L 3122 134 
Q 2881 22 2623 -34 
Q 2366 -91 2075 -91 
Q 1284 -91 818 406 
Q 353 903 353 1747 
Q 353 2603 823 3093 
Q 1294 3584 2113 3584 
Q 2378 3584 2631 3529 
Q 2884 3475 3122 3366 
z
" transform="scale(0.015625)"/>
      </defs>
      <use xlink:href="#DejaVuSans-33"/>
      <use xlink:href="#DejaVuSans-34" x="63.623047"/>
      <use xlink:href="#DejaVuSans-20" x="127.246094"/>
      <use xlink:href="#DejaVuSans-65" x="159.033203"/>
      <use xlink:href="#DejaVuSans-6c" x="220.556641"/>
      <use xlink:href="#DejaVuSans-65" x="248.339844"/>
      <use xlink:href="#DejaVuSans-63" x="309.863281"/>
      <use xlink:href="#DejaVuSans-74" x="364.84375"/>
      <use xlink:href="#DejaVuSans-72" x="404.052734"/>
      <use xlink:href="#DejaVuSans-6f" x="442.916016"/>
      <use xlink:href="#DejaVuSans-6e" x="504.097656"/>
      <use xlink:href="#DejaVuSans-73" x="567.476562"/>
     </g>
    </g>
    <g id="patch_9">
     <path d="M 59.74625 29.565937 
L 71.74625 29.565937 
L 71.74625 25.365937 
L 59.74625 25.365937 
z
" style="fill: #008000; stroke: #008000; stroke-linejoin: miter"/>
    </g>
    <g id="text_14">
     <!-- 30 electrons -->
     <g transform="translate(76.54625 29.565937) scale(0.06 -0.06)">
      <use xlink:href="#DejaVuSans-33"/>
      <use xlink:href="#DejaVuSans-30" x="63.623047"/>
      <use xlink:href="#DejaVuSans-20" x="127.246094"/>
      <use xlink:href="#DejaVuSans-65" x="159.033203"/>
      <use xlink:href="#DejaVuSans-6c" x="220.556641"/>
      <use xlink:href="#DejaVuSans-65" x="248.339844"/>
      <use xlink:href="#DejaVuSans-63" x="309.863281"/>
      <use xlink:href="#DejaVuSans-74" x="364.84375"/>
      <use xlink:href="#DejaVuSans-72" x="404.052734"/>
      <use xlink:href="#DejaVuSans-6f" x="442.916016"/>
      <use xlink:href="#DejaVuSans-6e" x="504.097656"/>
      <use xlink:href="#DejaVuSans-73" x="567.476562"/>
     </g>
    </g>
    <g id="patch_10">
     <path d="M 59.74625 38.372812 
L 71.74625 38.372812 
L 71.74625 34.172812 
L 59.74625 34.172812 
z
" style="fill: #ffa500; stroke: #ffa500; stroke-linejoin: miter"/>
    </g>
    <g id="text_15">
     <!-- 29 electrons -->
     <g transform="translate(76.54625 38.372812) scale(0.06 -0.06)">
      <defs>
       <path id="DejaVuSans-39" d="M 703 97 
L 703 672 
Q 941 559 1184 500 
Q 1428 441 1663 441 
Q 2288 441 2617 861 
Q 2947 1281 2994 2138 
Q 2813 1869 2534 1725 
Q 2256 1581 1919 1581 
Q 1219 1581 811 2004 
Q 403 2428 403 3163 
Q 403 3881 828 4315 
Q 1253 4750 1959 4750 
Q 2769 4750 3195 4129 
Q 3622 3509 3622 2328 
Q 3622 1225 3098 567 
Q 2575 -91 1691 -91 
Q 1453 -91 1209 -44 
Q 966 3 703 97 
z
M 1959 2075 
Q 2384 2075 2632 2365 
Q 2881 2656 2881 3163 
Q 2881 3666 2632 3958 
Q 2384 4250 1959 4250 
Q 1534 4250 1286 3958 
Q 1038 3666 1038 3163 
Q 1038 2656 1286 2365 
Q 1534 2075 1959 2075 
z
" transform="scale(0.015625)"/>
      </defs>
      <use xlink:href="#DejaVuSans-32"/>
      <use xlink:href="#DejaVuSans-39" x="63.623047"/>
      <use xlink:href="#DejaVuSans-20" x="127.246094"/>
      <use xlink:href="#DejaVuSans-65" x="159.033203"/>
      <use xlink:href="#DejaVuSans-6c" x="220.556641"/>
      <use xlink:href="#DejaVuSans-65" x="248.339844"/>
      <use xlink:href="#DejaVuSans-63" x="309.863281"/>
      <use xlink:href="#DejaVuSans-74" x="364.84375"/>
      <use xlink:href="#DejaVuSans-72" x="404.052734"/>
      <use xlink:href="#DejaVuSans-6f" x="442.916016"/>
      <use xlink:href="#DejaVuSans-6e" x="504.097656"/>
      <use xlink:href="#DejaVuSans-73" x="567.476562"/>
     </g>
    </g>
    <g id="patch_11">
     <path d="M 59.74625 47.179687 
L 71.74625 47.179687 
L 71.74625 42.979687 
L 59.74625 42.979687 
z
" style="fill: #0000ff; stroke: #0000ff; stroke-linejoin: miter"/>
    </g>
    <g id="text_16">
     <!-- 28 electrons -->
     <g transform="translate(76.54625 47.179687) scale(0.06 -0.06)">
      <defs>
       <path id="DejaVuSans-38" d="M 2034 2216 
Q 1584 2216 1326 1975 
Q 1069 1734 1069 1313 
Q 1069 891 1326 650 
Q 1584 409 2034 409 
Q 2484 409 2743 651 
Q 3003 894 3003 1313 
Q 3003 1734 2745 1975 
Q 2488 2216 2034 2216 
z
M 1403 2484 
Q 997 2584 770 2862 
Q 544 3141 544 3541 
Q 544 4100 942 4425 
Q 1341 4750 2034 4750 
Q 2731 4750 3128 4425 
Q 3525 4100 3525 3541 
Q 3525 3141 3298 2862 
Q 3072 2584 2669 2484 
Q 3125 2378 3379 2068 
Q 3634 1759 3634 1313 
Q 3634 634 3220 271 
Q 2806 -91 2034 -91 
Q 1263 -91 848 271 
Q 434 634 434 1313 
Q 434 1759 690 2068 
Q 947 2378 1403 2484 
z
M 1172 3481 
Q 1172 3119 1398 2916 
Q 1625 2713 2034 2713 
Q 2441 2713 2670 2916 
Q 2900 3119 2900 3481 
Q 2900 3844 2670 4047 
Q 2441 4250 2034 4250 
Q 1625 4250 1398 4047 
Q 1172 3844 1172 3481 
z
" transform="scale(0.015625)"/>
      </defs>
      <use xlink:href="#DejaVuSans-32"/>
      <use xlink:href="#DejaVuSans-38" x="63.623047"/>
      <use xlink:href="#DejaVuSans-20" x="127.246094"/>
      <use xlink:href="#DejaVuSans-65" x="159.033203"/>
      <use xlink:href="#DejaVuSans-6c" x="220.556641"/>
      <use xlink:href="#DejaVuSans-65" x="248.339844"/>
      <use xlink:href="#DejaVuSans-63" x="309.863281"/>
      <use xlink:href="#DejaVuSans-74" x="364.84375"/>
      <use xlink:href="#DejaVuSans-72" x="404.052734"/>
      <use xlink:href="#DejaVuSans-6f" x="442.916016"/>
      <use xlink:href="#DejaVuSans-6e" x="504.097656"/>
      <use xlink:href="#DejaVuSans-73" x="567.476562"/>
     </g>
    </g>
   </g>
   <g id="legend_2">
    <g id="patch_12">
     <path d="M 352.8 170.04 
L 415.6 170.04 
Q 417.2 170.04 417.2 168.44 
L 417.2 96.56 
Q 417.2 94.96 415.6 94.96 
L 352.8 94.96 
Q 351.2 94.96 351.2 96.56 
L 351.2 168.44 
Q 351.2 170.04 352.8 170.04 
z
" style="fill: #ffffff; opacity: 0.8; stroke: #cccccc; stroke-linejoin: miter"/>
    </g>
    <g id="PathCollection_88">
     <defs>
      <path id="m70103d4fef" d="M 0 1.581139 
C 0.419323 1.581139 0.821528 1.41454 1.118034 1.118034 
C 1.41454 0.821528 1.581139 0.419323 1.581139 0 
C 1.581139 -0.419323 1.41454 -0.821528 1.118034 -1.118034 
C 0.821528 -1.41454 0.419323 -1.581139 0 -1.581139 
C -0.419323 -1.581139 -0.821528 -1.41454 -1.118034 -1.118034 
C -1.41454 -0.821528 -1.581139 -0.419323 -1.581139 0 
C -1.581139 0.419323 -1.41454 0.821528 -1.118034 1.118034 
C -0.821528 1.41454 -0.419323 1.581139 0 1.581139 
z
"/>
     </defs>
     <g>
      <use xlink:href="#m70103d4fef" x="366.4" y="102.695" style="fill: #555555; fill-opacity: 0.5"/>
     </g>
    </g>
    <g id="text_17">
     <!-- 0.01 $E_h$ -->
     <g transform="translate(384.8 109.28) scale(0.08 -0.08)">
      <defs>
       <path id="DejaVuSans-Oblique-45" d="M 1081 4666 
L 4031 4666 
L 3928 4134 
L 1606 4134 
L 1338 2753 
L 3566 2753 
L 3463 2222 
L 1234 2222 
L 909 531 
L 3284 531 
L 3181 0 
L 172 0 
L 1081 4666 
z
" transform="scale(0.015625)"/>
       <path id="DejaVuSans-Oblique-68" d="M 3566 2113 
L 3156 0 
L 2578 0 
L 2988 2091 
Q 3016 2238 3031 2350 
Q 3047 2463 3047 2528 
Q 3047 2791 2881 2937 
Q 2716 3084 2419 3084 
Q 1956 3084 1617 2771 
Q 1278 2459 1178 1941 
L 800 0 
L 225 0 
L 1172 4863 
L 1747 4863 
L 1375 2950 
Q 1594 3244 1934 3414 
Q 2275 3584 2650 3584 
Q 3113 3584 3367 3334 
Q 3622 3084 3622 2631 
Q 3622 2519 3608 2391 
Q 3594 2263 3566 2113 
z
" transform="scale(0.015625)"/>
      </defs>
      <use xlink:href="#DejaVuSans-30" transform="translate(0 0.78125)"/>
      <use xlink:href="#DejaVuSans-2e" transform="translate(63.623047 0.78125)"/>
      <use xlink:href="#DejaVuSans-30" transform="translate(95.410156 0.78125)"/>
      <use xlink:href="#DejaVuSans-31" transform="translate(159.033203 0.78125)"/>
      <use xlink:href="#DejaVuSans-20" transform="translate(222.65625 0.78125)"/>
      <use xlink:href="#DejaVuSans-Oblique-45" transform="translate(254.443359 0.78125)"/>
      <use xlink:href="#DejaVuSans-Oblique-68" transform="translate(317.626953 -15.625) scale(0.7)"/>
     </g>
    </g>
    <g id="PathCollection_89">
     <defs>
      <path id="mc7008fb03e" d="M 0 7.98436 
C 2.117477 7.98436 4.148513 7.143077 5.645795 5.645795 
C 7.143077 4.148513 7.98436 2.117477 7.98436 0 
C 7.98436 -2.117477 7.143077 -4.148513 5.645795 -5.645795 
C 4.148513 -7.143077 2.117477 -7.98436 0 -7.98436 
C -2.117477 -7.98436 -4.148513 -7.143077 -5.645795 -5.645795 
C -7.143077 -4.148513 -7.98436 -2.117477 -7.98436 0 
C -7.98436 2.117477 -7.143077 4.148513 -5.645795 5.645795 
C -4.148513 7.143077 -2.117477 7.98436 0 7.98436 
z
"/>
     </defs>
     <g>
      <use xlink:href="#mc7008fb03e" x="366.4" y="128.255" style="fill: #555555; fill-opacity: 0.5"/>
     </g>
    </g>
    <g id="text_18">
     <!-- 0.26 $E_h$ -->
     <g transform="translate(384.8 134.84) scale(0.08 -0.08)">
      <defs>
       <path id="DejaVuSans-36" d="M 2113 2584 
Q 1688 2584 1439 2293 
Q 1191 2003 1191 1497 
Q 1191 994 1439 701 
Q 1688 409 2113 409 
Q 2538 409 2786 701 
Q 3034 994 3034 1497 
Q 3034 2003 2786 2293 
Q 2538 2584 2113 2584 
z
M 3366 4563 
L 3366 3988 
Q 3128 4100 2886 4159 
Q 2644 4219 2406 4219 
Q 1781 4219 1451 3797 
Q 1122 3375 1075 2522 
Q 1259 2794 1537 2939 
Q 1816 3084 2150 3084 
Q 2853 3084 3261 2657 
Q 3669 2231 3669 1497 
Q 3669 778 3244 343 
Q 2819 -91 2113 -91 
Q 1303 -91 875 529 
Q 447 1150 447 2328 
Q 447 3434 972 4092 
Q 1497 4750 2381 4750 
Q 2619 4750 2861 4703 
Q 3103 4656 3366 4563 
z
" transform="scale(0.015625)"/>
      </defs>
      <use xlink:href="#DejaVuSans-30" transform="translate(0 0.78125)"/>
      <use xlink:href="#DejaVuSans-2e" transform="translate(63.623047 0.78125)"/>
      <use xlink:href="#DejaVuSans-32" transform="translate(89.910156 0.78125)"/>
      <use xlink:href="#DejaVuSans-36" transform="translate(153.533203 0.78125)"/>
      <use xlink:href="#DejaVuSans-20" transform="translate(217.15625 0.78125)"/>
      <use xlink:href="#DejaVuSans-Oblique-45" transform="translate(248.943359 0.78125)"/>
      <use xlink:href="#DejaVuSans-Oblique-68" transform="translate(312.126953 -15.625) scale(0.7)"/>
     </g>
    </g>
    <g id="PathCollection_90">
     <defs>
      <path id="m0ebe009096" d="M 0 11.18034 
C 2.965061 11.18034 5.80908 10.002309 7.905694 7.905694 
C 10.002309 5.80908 11.18034 2.965061 11.18034 0 
C 11.18034 -2.965061 10.002309 -5.80908 7.905694 -7.905694 
C 5.80908 -10.002309 2.965061 -11.18034 0 -11.18034 
C -2.965061 -11.18034 -5.80908 -10.002309 -7.905694 -7.905694 
C -10.002309 -5.80908 -11.18034 -2.965061 -11.18034 0 
C -11.18034 2.965061 -10.002309 5.80908 -7.905694 7.905694 
C -5.80908 10.002309 -2.965061 11.18034 0 11.18034 
z
"/>
     </defs>
     <g>
      <use xlink:href="#m0ebe009096" x="366.4" y="153.815" style="fill: #555555; fill-opacity: 0.5"/>
     </g>
    </g>
    <g id="text_19">
     <!-- 0.5 $E_h$ -->
     <g transform="translate(384.8 160.4) scale(0.08 -0.08)">
      <use xlink:href="#DejaVuSans-30" transform="translate(0 0.78125)"/>
      <use xlink:href="#DejaVuSans-2e" transform="translate(63.623047 0.78125)"/>
      <use xlink:href="#DejaVuSans-35" transform="translate(95.410156 0.78125)"/>
      <use xlink:href="#DejaVuSans-20" transform="translate(159.033203 0.78125)"/>
      <use xlink:href="#DejaVuSans-Oblique-45" transform="translate(190.820312 0.78125)"/>
      <use xlink:href="#DejaVuSans-Oblique-68" transform="translate(254.003906 -15.625) scale(0.7)"/>
     </g>
    </g>
   </g>
  </g>
 </g>
 <defs>
  <clipPath id="p56751616c3">
   <rect x="54.34625" y="10.8" width="366.85375" height="163.24"/>
  </clipPath>
 </defs>
</svg>
